<svg width="81" height="70" viewBox="0 0 81 70" fill="none" xmlns="http://www.w3.org/2000/svg">
<g id="Frame">
<rect x="0.25" width="80" height="70" rx="35" fill="#E4FFFF"/>
<path id="Vector" d="M42.9221 21.8976C44.166 20.607 46.1827 20.607 47.4266 21.8976C48.6553 23.1724 48.6704 25.2294 47.4719 26.5234L30.5169 48.5117C30.4925 48.5434 30.4664 48.5737 30.4387 48.6025C29.1947 49.893 27.1781 49.893 25.9341 48.6025L14.6947 36.9415C13.4507 35.6509 13.4507 33.5586 14.6947 32.268C15.9386 30.9775 17.9553 30.9775 19.1993 32.268L28.0904 41.4925L42.8376 21.9965C42.8638 21.9618 42.8921 21.9288 42.9221 21.8976Z" fill="url(#paint0_linear_1057_21142)"/>
<path id="Vector_2" d="M39.0137 44.5469L42.9228 48.6025C44.1667 49.893 46.1834 49.893 47.4273 48.6025C47.4551 48.5737 47.4811 48.5434 47.5057 48.5117L64.4605 26.5234C65.6591 25.2294 65.644 23.1724 64.4153 21.8976C63.1714 20.607 61.1547 20.607 59.9108 21.8976C59.8807 21.9288 59.8525 21.9618 59.8262 21.9965L45.0791 41.4925L43.0178 39.354L39.0137 44.5469Z" fill="url(#paint1_linear_1057_21142)"/>
<path id="Vector_3" d="M42.9221 21.8976C44.166 20.607 46.1827 20.607 47.4266 21.8976C48.6553 23.1724 48.6704 25.2294 47.4719 26.5234L30.5169 48.5116C30.4925 48.5434 30.4664 48.5737 30.4387 48.6025C29.1947 49.893 27.1781 49.893 25.9341 48.6025L14.6947 36.9415C13.4507 35.6509 13.4507 33.5586 14.6947 32.268C15.9386 30.9775 17.9553 30.9775 19.1993 32.268L28.0904 41.4925L42.8376 21.9965C42.8638 21.9618 42.8921 21.9288 42.9221 21.8976Z" stroke="url(#paint2_linear_1057_21142)" stroke-width="1.41" stroke-linecap="round" stroke-linejoin="round"/>
<path id="Vector_4" d="M39.0137 44.5469L42.9228 48.6025C44.1667 49.893 46.1834 49.893 47.4273 48.6025C47.4551 48.5737 47.4811 48.5434 47.5057 48.5116L64.4605 26.5234C65.6591 25.2294 65.644 23.1724 64.4153 21.8976C63.1714 20.607 61.1547 20.607 59.9108 21.8976C59.8807 21.9288 59.8525 21.9618 59.8262 21.9965L45.0791 41.4925L43.0178 39.354L39.0137 44.5469Z" stroke="url(#paint3_linear_1057_21142)" stroke-width="1.41" stroke-linecap="round" stroke-linejoin="round"/>
</g>
<defs>
<linearGradient id="paint0_linear_1057_21142" x1="13.7617" y1="20.9297" x2="53.0715" y2="30.7949" gradientUnits="userSpaceOnUse">
<stop stop-color="#369D9C"/>
<stop offset="1" stop-color="#28814D"/>
</linearGradient>
<linearGradient id="paint1_linear_1057_21142" x1="39.0137" y1="20.9297" x2="69.6996" y2="26.7914" gradientUnits="userSpaceOnUse">
<stop stop-color="#369D9C"/>
<stop offset="1" stop-color="#28814D"/>
</linearGradient>
<linearGradient id="paint2_linear_1057_21142" x1="13.7617" y1="20.9297" x2="53.0715" y2="30.7949" gradientUnits="userSpaceOnUse">
<stop stop-color="#369D9C"/>
<stop offset="1" stop-color="#28814D"/>
</linearGradient>
<linearGradient id="paint3_linear_1057_21142" x1="39.0137" y1="20.9297" x2="69.6996" y2="26.7914" gradientUnits="userSpaceOnUse">
<stop stop-color="#369D9C"/>
<stop offset="1" stop-color="#28814D"/>
</linearGradient>
</defs>
</svg>
