<svg width="32" height="33" viewBox="0 0 32 33" fill="none" xmlns="http://www.w3.org/2000/svg">
<g clip-path="url(#clip0_1682_19873)">
<path d="M26.4694 4.1425C26.1556 3.82812 25.7869 3.67313 25.36 3.67313C24.9338 3.67313 24.56 3.82812 24.2506 4.1425L22.56 5.82812C22.1069 5.53438 21.6269 5.27812 21.1256 5.04875C20.6244 4.81938 20.1119 4.6225 19.5944 4.45188V1.85938C19.5944 1.42188 19.4456 1.05375 19.1413 0.75C18.8375 0.44625 18.4694 0.296875 18.0319 0.296875H14.7788C14.3625 0.296875 14.0006 0.44625 13.6856 0.75C13.3763 1.05375 13.2212 1.42188 13.2212 1.85938V4.23312C12.6775 4.36062 12.1494 4.52062 11.6425 4.71812C11.1306 4.91563 10.6456 5.13937 10.1869 5.39L8.31437 3.54437C8.02125 3.23563 7.66437 3.07562 7.23187 3.07562C6.805 3.07562 6.4375 3.23563 6.1225 3.54437L3.84562 5.82812C3.53125 6.1425 3.37625 6.51063 3.37625 6.93625C3.37625 7.36313 3.53125 7.73688 3.84562 8.04563L5.53125 9.73687C5.2375 10.1906 4.98187 10.67 4.7525 11.1713C4.5225 11.6725 4.32563 12.185 4.155 12.7019H1.56313C1.125 12.7019 0.756875 12.8513 0.453125 13.1556C0.149375 13.4594 0 13.8275 0 14.265V17.5181C0 17.9338 0.149375 18.2969 0.453125 18.6119C0.756875 18.9206 1.125 19.0756 1.56313 19.0756H3.93625C4.06375 19.6194 4.22375 20.1475 4.42125 20.6537C4.61937 21.1663 4.84312 21.6619 5.09312 22.1419L3.24813 23.9819C2.93875 24.2756 2.77875 24.6325 2.77875 25.065C2.77875 25.4913 2.93875 25.8594 3.24813 26.1744L5.53125 28.4837C5.84562 28.7769 6.21375 28.9212 6.64062 28.9212C7.06687 28.9212 7.44 28.7769 7.75 28.4837L9.44 26.7663C9.89375 27.0594 10.3737 27.315 10.875 27.545C11.3763 27.7738 11.8881 27.9719 12.4056 28.1419V30.7344C12.4056 31.1719 12.555 31.5394 12.8588 31.8431C13.1625 32.1475 13.5312 32.2969 13.9681 32.2969H17.2213C17.6375 32.2969 18 32.1475 18.315 31.8431C18.6238 31.5394 18.7787 31.1719 18.7787 30.7344V28.3606C19.3225 28.2331 19.8506 28.0731 20.3569 27.8756C20.8694 27.6781 21.3656 27.4544 21.845 27.2038L23.685 29.0494C23.9788 29.3588 24.3406 29.5181 24.7794 29.5181C25.2213 29.5181 25.5837 29.3588 25.8775 29.0494L28.1869 26.7663C28.48 26.4513 28.6244 26.0837 28.6244 25.6569C28.6244 25.2306 28.48 24.8569 28.1869 24.5475L26.4694 22.8569C26.7631 22.4031 27.0187 21.9237 27.2481 21.4219C27.4769 20.9212 27.675 20.4088 27.8456 19.8913H30.4375C30.875 19.8913 31.2425 19.7413 31.5462 19.4381C31.8506 19.1338 32 18.7663 32 18.3288V15.0756C32 14.6594 31.8506 14.2975 31.5462 13.9819C31.2425 13.6725 30.875 13.5181 30.4375 13.5181H28.0637C27.9362 12.9956 27.7763 12.4725 27.5788 11.9556C27.3813 11.4325 27.1575 10.9425 26.9069 10.4831L28.7525 8.61125C29.0619 8.31812 29.2213 7.96062 29.2213 7.52875C29.2213 7.10187 29.0619 6.73438 28.7525 6.41937L26.4694 4.1425ZM23.4438 20.2663C22.0238 22.9237 19.2225 24.7313 16 24.7313C12.7762 24.7313 9.97688 22.9237 8.55688 20.2675C8.72313 19.5419 8.9975 18.9088 9.80062 18.465C10.9106 17.8469 12.8219 17.8931 13.7312 17.075L14.9875 20.3738L15.6187 18.5756L15.3094 18.2369C15.0769 17.8969 15.1569 17.5106 15.5881 17.4406C15.7338 17.4175 15.8975 17.4319 16.055 17.4319C16.2231 17.4319 16.41 17.4163 16.5688 17.4519C16.9694 17.54 17.0106 17.9281 16.8113 18.2369L16.5019 18.5756L17.1338 20.3738L18.27 17.075C19.09 17.8125 21.2969 17.9613 22.2 18.465C23.0056 18.9163 23.2787 19.5425 23.4438 20.2663ZM13.4994 14.8631C13.3856 14.865 13.2925 14.8506 13.1912 14.7944C13.0569 14.72 12.9619 14.5919 12.8975 14.4475C12.7619 14.1438 12.6544 13.3456 12.9956 13.1169L12.9319 13.0756L12.925 12.9875C12.9119 12.8269 12.9087 12.6325 12.905 12.4281C12.8925 11.6781 12.8769 10.7681 12.2569 10.5863L11.9913 10.5075L12.1669 10.2963C12.6675 9.69375 13.1906 9.16687 13.7181 8.7625C14.315 8.30437 14.9219 8 15.515 7.91187C16.1256 7.82187 16.7169 7.95875 17.2631 8.38813C17.4237 8.515 17.5806 8.66812 17.7319 8.84625C18.3137 8.90125 18.7906 9.20687 19.1306 9.64312C19.3331 9.90312 19.4875 10.2112 19.5863 10.5387C19.6838 10.865 19.7262 11.2119 19.7081 11.5531C19.675 12.1656 19.4456 12.7625 18.9825 13.1987C19.0637 13.2012 19.1406 13.2194 19.2081 13.2556C19.4669 13.39 19.475 13.6819 19.4075 13.9275C19.34 14.1325 19.255 14.37 19.1744 14.57C19.0769 14.8394 18.9338 14.89 18.6575 14.8606C18.0369 17.5763 14.2838 17.6688 13.4994 14.8631ZM16 6.3825C21.4775 6.3825 25.9144 10.8225 25.9144 16.2969C25.9144 21.7744 21.4744 26.2113 16 26.2113C10.5231 26.2113 6.08563 21.7712 6.08563 16.2969C6.08563 10.8194 10.5256 6.3825 16 6.3825Z" fill="black"/>
</g>
<defs>
<clipPath id="clip0_1682_19873">
<rect width="32" height="32" fill="white" transform="translate(0 0.296875)"/>
</clipPath>
</defs>
</svg>
