<svg width="32" height="33" viewBox="0 0 32 33" fill="none" xmlns="http://www.w3.org/2000/svg">
<g clip-path="url(#clip0_1682_19725)">
<path d="M8.67813 13.7142L12.5119 13.6629L12.7975 13.7373C14.1425 14.513 15.3463 15.4812 16.3888 16.6319C17.7644 14.4186 19.2294 12.3866 20.7775 10.5177C22.4731 8.4695 24.2725 6.61189 26.1625 4.91617L26.5369 4.77241H30.72L29.8769 5.70934C27.2844 8.59013 24.9325 11.5672 22.8075 14.6374C20.6813 17.7107 18.7806 20.8827 17.0906 24.1479L16.565 25.163L16.0812 24.1292C14.3169 20.3421 11.8294 17.1169 8.36563 14.7386L8.67813 13.7142ZM15.9987 0.295898C18.4019 0.295898 20.76 0.83093 22.9263 1.87099C23.0656 1.93787 23.1256 2.10725 23.0588 2.24726C23.0394 2.28727 23.0119 2.32102 22.9788 2.34727L20.6325 4.26738C20.5926 4.3008 20.5443 4.32265 20.4928 4.33059C20.4414 4.33852 20.3888 4.33222 20.3406 4.31238C18.9494 3.8086 17.4813 3.55546 16.0019 3.55546C12.61 3.55546 9.39062 4.88617 6.99312 7.28631C4.59375 9.68707 3.26187 12.901 3.26187 16.2956C3.26187 19.6883 4.5925 22.9053 6.9925 25.3042C9.39375 27.7044 12.6069 29.0363 16.0019 29.0363C19.3906 29.0363 22.6138 27.7044 25.0094 25.3049C27.41 22.9053 28.7406 19.6895 28.7406 16.2956C28.7406 15.4705 28.665 14.6586 28.5063 13.8479C28.4894 13.7598 28.5156 13.6717 28.5706 13.6086L30.64 10.9859C30.7375 10.8646 30.9163 10.8465 31.0375 10.944C31.0831 10.9809 31.1137 11.029 31.13 11.0815C31.7081 12.7585 32 14.5224 32 16.2956C32 20.5477 30.3206 24.6017 27.3137 27.6088C24.3075 30.6146 20.2525 32.2959 16.0019 32.2959C11.75 32.2959 7.69625 30.6152 4.68937 27.6088L4.67812 27.5962C1.67562 24.5892 0 20.5452 0 16.2956C0 12.0441 1.67938 7.9901 4.68625 4.98305L4.69875 4.9718C7.70563 1.97162 11.7512 0.295898 15.9987 0.295898Z" fill="black"/>
</g>
<defs>
<clipPath id="clip0_1682_19725">
<rect width="32" height="32" fill="white" transform="translate(0 0.295898)"/>
</clipPath>
</defs>
</svg>
