<svg width="31" height="31" viewBox="0 0 31 31" fill="none" xmlns="http://www.w3.org/2000/svg">
<path fill-rule="evenodd" clip-rule="evenodd" d="M0 17.4745H6.02946L5.78727 27.9514H0V17.4745ZM19.6449 6.80274V7.0534C20.0814 6.41031 20.5935 5.9014 21.1813 5.49631C22.1274 4.84562 23.2601 4.47343 24.6022 4.23544C24.8167 4.19746 25.0235 4.34178 25.0614 4.55952C25.0992 4.77473 24.9554 4.98234 24.7384 5.02032C23.5023 5.23806 22.4679 5.57479 21.6278 6.15459C20.9492 6.62298 20.3866 7.25342 19.93 8.11931C23.1516 8.44339 25.0563 8.12691 26.4413 7.1167C27.8137 6.11408 28.7396 4.38229 29.9505 1.88841C29.5948 1.90866 29.224 1.92638 28.8455 1.94411C26.406 2.05804 23.7319 2.1821 22.0618 3.65564C21.6354 4.03289 21.2166 4.48356 20.8105 5.01525C20.4194 5.52669 20.0309 6.12168 19.6449 6.80274ZM18.4466 4.76713C18.3104 4.58484 18.159 4.44052 17.9925 4.32152C17.6646 4.09366 17.2609 3.95947 16.7791 3.85313C16.5646 3.80756 16.4284 3.59488 16.4763 3.37967C16.5217 3.16446 16.7336 3.02774 16.9481 3.07585C17.5208 3.20244 18.0127 3.36954 18.439 3.66324C18.4088 3.56703 18.3735 3.47082 18.3356 3.37714C18.1338 2.87836 17.8361 2.42263 17.4274 2.0631C16.9531 1.64535 16.3477 1.56939 15.7926 1.4985L15.78 1.49597L12.8713 1.31621L13.623 2.87583C14.1503 3.82275 14.8617 4.34937 15.7371 4.60509C16.5066 4.82789 17.4173 4.85321 18.4466 4.76713ZM18.7569 5.71405C17.5283 5.83304 16.4284 5.81532 15.4697 5.53682C14.3446 5.21021 13.4364 4.53673 12.7703 3.33157C12.7653 3.32397 12.7603 3.31384 12.7577 3.30625L11.6427 0.992128C11.5266 0.751601 11.6275 0.460437 11.8672 0.343972C11.9429 0.305994 12.0261 0.290803 12.1069 0.295866L15.8431 0.526266C15.8633 0.526266 15.8835 0.528797 15.9036 0.533861L15.9163 0.536393C16.6151 0.625008 17.377 0.721219 18.0682 1.3314C18.5955 1.79726 18.9789 2.37959 19.2337 3.01255C19.5138 3.70628 19.6399 4.45824 19.6399 5.18235C19.6399 5.23552 19.6323 5.28869 19.6147 5.3368C19.8039 5.05323 19.9931 4.78485 20.1873 4.53167C20.6339 3.94934 21.0829 3.46069 21.5396 3.05812C23.4165 1.40229 26.237 1.27063 28.8127 1.1491C29.4081 1.12125 29.9884 1.0934 30.5737 1.0453C30.6418 1.04023 30.7124 1.05036 30.778 1.08327C30.9748 1.17949 31.058 1.41495 30.9622 1.61243C29.5469 4.54433 28.5479 6.55462 26.9055 7.75219C25.3061 8.92191 23.1642 9.26878 19.5516 8.87381V12.0589C21.0627 9.94731 22.5386 9.91187 24.9478 9.85363C25.465 9.84098 26.0276 9.82832 26.6684 9.78781C26.734 9.78274 26.7996 9.7954 26.8626 9.82578C27.0594 9.922 27.1427 10.1575 27.0468 10.3549C26.0604 12.3982 25.4246 13.6641 24.3373 14.3806C23.2954 15.0667 21.923 15.1933 19.5516 14.9351V17.1251L23.6536 21.4014L26.1083 20.252C28.3788 19.5608 29.9253 21.9635 28.2275 23.5687C24.91 25.8727 21.5219 27.7539 18.0632 29.2578C15.5429 30.7162 13.0605 30.6073 10.6108 29.0831L6.9856 27.0981L7.18742 18.4037L11.0851 18.4949C12.5282 18.7886 13.9611 19.5481 15.3915 20.4596L18.762 17.1277V15.0566C15.5101 15.4111 13.5347 15.1123 12.0413 14.0692C10.5074 12.9982 9.54875 11.1905 8.26213 8.52188C8.16626 8.32439 8.24951 8.0864 8.44629 7.99272C8.51188 7.96234 8.58 7.94968 8.64811 7.95474C9.1779 7.99525 9.71525 8.01804 10.2703 8.04082C12.6518 8.1345 15.336 8.24084 17.0288 9.73717C17.821 10.436 18.3785 11.0183 18.762 11.6614V5.71405H18.7569ZM17.8866 14.3401C17.3442 13.6261 16.774 13.0894 16.166 12.6716C15.4193 12.1576 14.6044 11.8133 13.7113 11.5297C13.502 11.4639 13.3859 11.2411 13.4515 11.031C13.5171 10.8208 13.7391 10.7043 13.9485 10.7702C14.9071 11.074 15.7876 11.4462 16.61 12.0133C17.324 12.5045 17.99 13.14 18.6131 13.9907C18.5677 13.2919 18.434 12.7476 18.1842 12.2614C17.8588 11.6259 17.3164 11.0537 16.499 10.3296C15.0131 9.01812 12.4802 8.91938 10.2324 8.83076C9.90194 8.8181 9.5765 8.80545 9.26367 8.78772C10.351 11.0056 11.2214 12.5323 12.4853 13.416C13.6937 14.2565 15.3083 14.5477 17.8866 14.3401ZM19.8695 13.0134C20.1646 12.7501 20.5002 12.5247 20.8559 12.3349C21.6758 11.8968 22.6168 11.6386 23.4871 11.4842C23.7016 11.4462 23.9084 11.5905 23.9463 11.8082C23.9841 12.0234 23.8403 12.2311 23.6234 12.269C22.8237 12.4108 21.9634 12.6463 21.2267 13.0387C20.6894 13.3248 20.2176 13.697 19.8896 14.1781C21.9054 14.3806 23.0709 14.2717 23.8984 13.7248C24.7082 13.1906 25.2708 12.188 26.0377 10.6183C25.6618 10.6334 25.301 10.641 24.9605 10.6512C22.6521 10.7043 21.2999 10.7373 19.8695 13.0134ZM19.148 18.0012L16.2543 20.8622L19.0117 20.9255C20.3791 21.0394 21.0653 22.4496 19.7131 23.3358C18.6333 24.0928 17.2332 24.0143 15.8027 23.8523C14.8138 23.7814 14.7406 25.1157 15.7725 25.1435C16.1307 25.179 16.5217 25.1056 16.8623 25.1131C18.6535 25.1537 20.1369 24.8448 21.0728 23.4447L21.5522 22.3914L22.8009 21.8065L19.148 18.0012Z" fill="black"/>
</svg>
