<svg width="35" height="33" viewBox="0 0 35 33" fill="none" xmlns="http://www.w3.org/2000/svg">
<g clip-path="url(#clip0_1682_19565)">
<path d="M15.0112 2.06932C14.9413 2.07091 14.8717 2.06008 14.8057 2.03732C12.9724 2.85616 11.4887 4.65792 11.0858 7.65741C11.0431 7.9883 10.7281 8.22024 10.3838 8.18041C10.0395 8.13763 9.79677 7.83613 9.83955 7.50773C10.309 4.01202 12.1025 1.89843 14.3203 0.926854C15.4381 0.435847 16.658 0.241123 17.8641 0.310457C19.0679 0.377067 20.2605 0.70535 21.3333 1.26036C23.6044 2.43744 25.3339 4.63624 25.4593 7.56402C25.4723 7.89752 25.2028 8.1778 24.8559 8.19119C24.5089 8.20424 24.2183 7.94552 24.2048 7.61202C24.1007 5.15925 22.6464 3.31562 20.7382 2.32532C20.6563 2.28281 20.5736 2.24188 20.4902 2.20254C20.4182 2.22789 20.3421 2.23962 20.2658 2.23715C19.6947 2.22376 19.5455 3.24073 19.5109 4.61241C19.4949 5.22631 19.5079 5.9041 19.5212 6.59505C19.5321 7.14484 19.5429 7.70541 19.5429 8.07885C19.5429 8.41792 19.2626 8.69264 18.9182 8.69264C18.574 8.69264 18.2937 8.41792 18.2937 8.07885C18.2937 7.47051 18.2858 7.03806 18.2777 6.614C18.2646 5.90671 18.2512 5.21814 18.2672 4.58302C18.2992 3.34456 18.4458 2.29866 18.8996 1.66614C18.5348 1.58855 18.1646 1.53866 17.7922 1.51692C17.3269 1.49034 16.8601 1.51076 16.3989 1.57786C16.8154 2.22376 16.9569 3.25673 16.9889 4.47102C17.0049 5.12725 16.9915 5.84271 16.9782 6.57644C16.9703 7.01412 16.9622 7.45973 16.9622 8.07885C16.9622 8.15876 16.9466 8.23791 16.916 8.31175C16.8855 8.3856 16.8407 8.4527 16.7842 8.50922C16.7277 8.56574 16.6606 8.61057 16.5868 8.64115C16.513 8.67173 16.4338 8.68745 16.3539 8.68742C16.274 8.68748 16.1948 8.67178 16.121 8.64122C16.0471 8.61066 15.98 8.56584 15.9234 8.50932C15.8669 8.45279 15.8221 8.38568 15.7915 8.31182C15.7609 8.23796 15.7452 8.15879 15.7452 8.07885C15.7452 7.69202 15.756 7.12101 15.7665 6.55783C15.7799 5.83715 15.7932 5.13542 15.7772 4.50041C15.7452 3.09366 15.593 2.05287 15.0112 2.06932ZM12.4624 21.5269L15.2308 29.6693L16.623 24.8375L15.9407 24.0909C15.6325 23.6423 15.5655 23.2492 15.7363 22.9116C16.106 22.1802 16.8709 22.3168 17.5852 22.3168C18.3338 22.3168 19.2581 22.175 19.4927 23.1119C19.5712 23.4254 19.4721 23.7533 19.2529 24.0909L18.5706 24.8375L19.9628 29.6693L22.4694 21.5269C24.2782 23.1544 29.6314 23.4812 31.623 24.5915C34.142 25.996 34.1624 29.353 34.9319 32.2803H0C0.319092 30.2463 0.413277 27.6306 1.65243 25.9945C2.1103 25.3896 2.67904 24.943 3.30928 24.5915C5.30077 23.4808 10.6537 23.1544 12.4624 21.5269ZM24.86 10.2728C24.9066 10.3861 24.951 10.5003 24.9932 10.6153L24.9952 10.6213C25.0603 10.8002 25.1201 10.9811 25.1746 11.1636L25.179 11.1825C25.2475 11.5377 25.29 11.7182 25.3156 11.8269L25.3176 11.8359C25.3372 11.9203 25.3481 11.9658 25.3532 12.0212C25.3585 12.0782 25.3569 12.137 25.3543 12.2572C25.3514 12.3801 25.3462 12.57 25.3458 12.889L25.3455 12.9005C25.3298 13.1131 25.2941 13.3375 25.2453 13.5605C25.1931 13.7985 25.1276 14.0334 25.0491 14.264L25.0461 14.2719C24.9002 14.6839 24.7026 15.0561 24.4714 15.3272C24.2748 15.5575 24.0504 15.7183 23.8077 15.7758L23.6736 16.2779C23.2687 17.772 22.4687 19.0816 21.3908 19.9907L21.3803 19.9989C20.3629 20.8528 19.0991 21.3516 17.6858 21.3139C16.1976 21.2902 14.9531 20.7515 13.9562 19.8741C12.8491 18.9 12.0478 17.5074 11.5568 15.9395C11.5321 15.8375 11.4894 15.7221 11.4562 15.6197C11.0605 15.5709 10.7493 15.2776 10.5134 14.8894C10.1593 14.3065 9.97027 13.4949 9.92375 13.0264C9.87938 12.5818 9.94973 12.0983 10.073 11.6278C10.1817 11.2124 10.3324 10.8059 10.4809 10.4466C10.3591 10.382 10.2395 10.3132 10.1224 10.2404C9.49526 9.84838 9.02026 9.37043 8.75336 8.8077L9.89538 8.30853C10.0584 8.65281 10.3759 8.96214 10.8082 9.23165C12.204 10.1046 14.6591 10.5233 17.1944 10.5315C19.7509 10.5393 22.3555 10.1232 24.0262 9.3306C24.6854 9.01831 25.179 8.65542 25.4325 8.24963L26.5105 8.86864C26.1685 9.41809 25.5959 9.88674 24.86 10.2728ZM11.6007 10.9306C11.1913 11.3412 11.069 12.0737 11.1146 12.7907C11.142 13.2233 11.2314 13.6501 11.3561 13.9983C11.4745 14.3295 11.6216 14.583 11.77 14.6891L11.7778 14.695C11.8214 14.7249 11.8638 14.7379 11.901 14.7304C11.9484 14.717 11.9979 14.7131 12.0467 14.719C12.0955 14.7249 12.1427 14.7404 12.1854 14.7647C12.2719 14.8137 12.3377 14.8924 12.3705 14.9862C12.442 15.1827 12.5037 15.4098 12.5666 15.6137C13.084 17.2554 14.0166 18.4548 15.1176 19.1847C15.9392 19.7297 16.8561 20.0149 17.7635 20.0279C18.67 20.041 19.5712 19.7844 20.3622 19.2469C21.3274 18.591 22.1325 17.5152 22.5942 16.0009C22.6437 15.8084 22.6944 15.6339 22.7497 15.4407L22.8142 15.2188C22.8421 15.1292 22.8991 15.0494 22.9706 14.9981L22.9776 14.9932C23.0561 14.9385 23.1526 14.9136 23.2486 14.9322C23.3532 14.9527 23.4831 14.8723 23.6141 14.7275C23.7794 14.5447 23.9353 14.2681 24.0507 13.9543C24.2004 13.282 24.228 12.7989 24.1695 12.3425C24.1103 11.8836 23.9591 11.4345 23.7552 10.8397C23.7471 10.8159 23.7448 10.7906 23.7485 10.7657L23.7496 10.7534C20.5063 11.9152 15.0335 12.1325 11.6007 10.9306Z" fill="black"/>
</g>
<defs>
<clipPath id="clip0_1682_19565">
<rect width="34.9504" height="32" fill="white" transform="translate(0 0.296875)"/>
</clipPath>
</defs>
</svg>
