<svg width="33" height="33" viewBox="0 0 33 33" fill="none" xmlns="http://www.w3.org/2000/svg">
<g clip-path="url(#clip0_1682_19541)">
<path d="M30.207 4.60323L25.0312 9.77902C26.0364 11.1679 26.6292 12.8749 26.6292 14.7209C26.6292 17.0506 25.6845 19.1598 24.1579 20.687C22.6307 22.2137 20.5208 23.1583 18.1911 23.1583C16.7646 23.1583 15.4209 22.8039 14.2423 22.1792C14.57 21.9275 14.8797 21.6559 15.1698 21.3659C15.5006 21.0351 15.8072 20.6794 16.0864 20.3014C16.741 20.5481 17.4504 20.6832 18.1911 20.6832C19.8382 20.6832 21.3291 20.0159 22.4082 18.9367C23.4867 17.8582 24.1547 16.3673 24.1547 14.7209C24.1547 13.0738 23.4867 11.5829 22.4082 10.5038C21.3291 9.42462 19.8382 8.75725 18.1911 8.75725C16.5447 8.75725 15.0538 9.42462 13.9746 10.5038C12.8955 11.5829 12.2281 13.0738 12.2281 14.7209C12.2281 15.5642 12.4034 16.366 12.7189 17.0933C12.5028 17.4688 12.2358 17.8149 11.9273 18.1234C11.6124 18.4376 11.2592 18.7092 10.8755 18.9278C10.1616 17.6893 9.75368 16.2526 9.75368 14.7209C9.75368 12.3905 10.6983 10.2813 12.2249 8.75406C13.7515 7.22682 15.8614 6.28217 18.1911 6.28217C20.1129 6.28217 21.8849 6.92532 23.3038 8.00701L28.5854 2.72541H26.6285C25.958 2.72541 25.4143 2.1817 25.4143 1.51114C25.4143 0.840587 25.958 0.296875 26.6285 0.296875H31.4212C32.0918 0.296875 32.6355 0.840587 32.6355 1.51114V6.453C32.6355 7.12356 32.0918 7.66727 31.4212 7.66727C30.7507 7.66727 30.207 7.12356 30.207 6.453V4.60323ZM9.67145 23.0238V25.1368H13.1887C13.8593 25.1368 14.403 25.6805 14.403 26.3511C14.403 27.0217 13.8593 27.5654 13.1887 27.5654H9.67145V31.0826C9.67145 31.7532 9.12774 32.2969 8.45718 32.2969C7.78663 32.2969 7.24291 31.7532 7.24291 31.0826V27.5654H3.72567C3.05512 27.5654 2.5114 27.0217 2.5114 26.3511C2.5114 25.6805 3.05512 25.1368 3.72567 25.1368H7.24291V23.0238C5.39378 22.758 3.73715 21.8937 2.47698 20.6335C0.946557 19.1031 0 16.9888 0 14.6533C0 12.3185 0.946557 10.2042 2.47698 8.67374C4.00741 7.14332 6.12171 6.19612 8.45718 6.19612C9.89009 6.19612 11.2395 6.55307 12.4219 7.18156C12.0885 7.43653 11.7736 7.71253 11.4785 8.00765C11.1509 8.33464 10.8475 8.68713 10.5702 9.06129C9.91303 8.8127 9.20104 8.67693 8.45718 8.67693C6.80629 8.67693 5.31219 9.34621 4.23114 10.4273C3.14945 11.509 2.48081 13.003 2.48081 14.6533C2.48081 16.3042 3.14945 17.7983 4.23114 18.88C5.31219 19.961 6.80692 20.6303 8.45718 20.6303C10.1074 20.6303 11.6022 19.961 12.6832 18.8793C13.7649 17.7983 14.4336 16.3042 14.4336 14.6533C14.4336 13.8043 14.257 12.9967 13.937 12.2649C14.1531 11.8929 14.4167 11.5505 14.721 11.2463C15.0382 10.9286 15.3974 10.6558 15.7887 10.4356C16.5045 11.6772 16.9144 13.1178 16.9144 14.6533C16.9144 16.9888 15.9672 19.1031 14.4367 20.6335C13.1766 21.8937 11.5206 22.758 9.67145 23.0238Z" fill="black"/>
</g>
<defs>
<clipPath id="clip0_1682_19541">
<rect width="32.6355" height="32" fill="white" transform="translate(0 0.296875)"/>
</clipPath>
</defs>
</svg>
