<svg width="32" height="41" viewBox="0 0 32 41" fill="none" xmlns="http://www.w3.org/2000/svg">
<g clip-path="url(#clip0_1682_19898)">
<path fill-rule="evenodd" clip-rule="evenodd" d="M13.1529 6.54372C12.9641 6.55023 12.8208 6.5893 12.7264 6.6544C12.6711 6.69021 12.6288 6.73904 12.6027 6.79763C12.5734 6.85948 12.5604 6.9376 12.5636 7.02549C12.5701 7.28266 12.7069 7.6212 12.9673 8.01182L12.9706 8.01833L13.8203 9.36924C14.1622 9.90961 14.517 10.463 14.9598 10.8666C15.3863 11.2573 15.904 11.5209 16.5876 11.5209C17.3299 11.5242 17.8704 11.2475 18.3099 10.8373C18.7689 10.4077 19.1271 9.82172 19.4852 9.23578L20.4424 7.66026C20.6214 7.25336 20.6865 6.97992 20.6442 6.82042C20.6214 6.72602 20.514 6.67719 20.3349 6.67068C20.2959 6.66742 20.2568 6.66742 20.2177 6.67068C20.1754 6.67068 20.1298 6.67393 20.0842 6.68044C20.0582 6.6837 20.0354 6.68044 20.0094 6.67719C19.9247 6.68044 19.8368 6.67719 19.7457 6.66417L20.0745 5.2156C17.6425 5.59971 15.8258 3.79307 13.2571 4.85427L13.4427 6.56325C13.345 6.56 13.2473 6.55674 13.1529 6.54372ZM16.1612 29.2683C17.4341 29.2683 18.4629 30.3002 18.4629 31.5698C18.4629 32.8393 17.4309 33.8712 16.1612 33.8712C14.8914 33.8712 13.8594 32.8393 13.8594 31.5698C13.8594 30.3002 14.8882 29.2683 16.1612 29.2683ZM3.57147 19.532C3.5324 19.5385 3.49008 19.5418 3.44776 19.5418C3.40543 19.5418 3.36636 19.5385 3.32404 19.532H1.64737C1.62784 19.532 1.6083 19.5385 1.59202 19.5483L1.579 19.5613C1.56272 19.5776 1.5497 19.6036 1.5497 19.6297V23.3927C1.5497 23.4122 1.55621 23.4317 1.56598 23.448L1.579 23.461C1.59528 23.4773 1.62132 23.4903 1.64737 23.4903H3.73426C3.77007 23.4871 3.80262 23.4838 3.84169 23.4838C3.87751 23.4838 3.91332 23.4871 3.94913 23.4903H28.4383C28.4741 23.4871 28.5067 23.4838 28.5457 23.4838C28.5815 23.4838 28.6174 23.4871 28.6499 23.4903H30.3526C30.3787 23.4903 30.4047 23.4806 30.421 23.4643C30.4373 23.448 30.447 23.422 30.447 23.3959V19.6297C30.447 19.6036 30.4373 19.5808 30.4177 19.5613C30.4015 19.545 30.3754 19.532 30.3494 19.532H3.57147ZM2.67291 17.9793V11.9506C2.67291 11.7521 2.74779 11.5698 2.8715 11.4298L5.08536 8.64659C4.85095 8.27875 4.71421 7.8393 4.71421 7.37055C4.71421 6.0587 5.77882 4.99424 7.09085 4.99424C8.40289 4.99424 9.46749 6.0587 9.46749 7.37055C9.46749 8.68239 8.40289 9.74685 7.09085 9.74685C6.81412 9.74685 6.54716 9.69802 6.29973 9.61013L4.22586 12.2176V17.9793H7.52386C7.50107 17.9011 7.48479 17.8165 7.47502 17.7254C7.50432 15.3491 7.14294 14.9064 9.6433 13.5131C10.5581 13.0021 12.9218 12.8295 13.9538 12.1524C14.1101 11.8562 14.2859 11.3256 14.3901 11.0099L14.3998 10.9773C14.0222 10.5704 13.7129 10.0886 13.4134 9.61664L12.5636 8.26573C12.2543 7.80349 12.0916 7.38031 12.0818 7.03201C12.0785 6.86924 12.1046 6.7195 12.1664 6.5893C12.2283 6.45258 12.326 6.33865 12.4595 6.25076C12.5213 6.20844 12.5897 6.17589 12.6646 6.14659C12.6092 5.41417 12.5897 4.49294 12.6255 3.7182C12.645 3.53591 12.6776 3.35036 12.7297 3.16807C13.039 2.05805 13.9961 1.25727 15.0868 0.879661C15.6142 0.69737 15.4124 0.261172 15.9463 0.290469C17.2127 0.358828 19.1694 1.17589 19.9215 2.04177C20.973 3.25596 20.7028 4.7501 20.667 6.23122C20.9014 6.30284 21.0544 6.45258 21.1163 6.69346C21.1847 6.96039 21.1098 7.33799 20.8851 7.85232C20.8819 7.86208 20.8754 7.87185 20.8721 7.87836L19.9052 9.47341C19.5308 10.0886 19.1531 10.7039 18.6485 11.1759L18.6224 11.1987C18.6713 11.267 18.7234 11.3452 18.7787 11.4265C18.948 11.6739 19.1368 11.9539 19.3159 12.172C20.3675 12.8263 22.6823 13.0021 23.5841 13.5066C25.8858 14.7892 25.3161 15.476 25.4821 17.7189C25.4724 17.81 25.4561 17.8946 25.4333 17.9728H30.3559C30.8084 17.9728 31.2219 18.1583 31.5214 18.4578C31.8209 18.7573 32.0065 19.1674 32.0065 19.6231V23.3862C32.0065 23.8386 31.8209 24.2488 31.5214 24.5483L31.5182 24.5515C31.2186 24.851 30.8084 25.0366 30.3559 25.0366H29.3206V39.0437C29.3206 39.3888 29.1806 39.7013 28.9527 39.9259C28.728 40.1505 28.4122 40.2937 28.0704 40.2937H4.32353C3.97843 40.2937 3.66263 40.1537 3.43799 39.9259C3.4152 39.9031 3.39567 39.8836 3.37939 39.8575C3.1873 39.6362 3.0701 39.3497 3.0701 39.0372V25.0366H1.64737C1.19483 25.0366 0.781361 24.851 0.481839 24.5515C0.462305 24.532 0.446027 24.5125 0.429749 24.4929C0.162784 24.2065 0 23.8191 0 23.3927V19.6297C0 19.1772 0.185573 18.7638 0.485095 18.4643C0.504629 18.4448 0.524163 18.4285 0.543697 18.409C0.836708 18.142 1.22739 17.9793 1.64737 17.9793H2.67291ZM4.61654 25.0398V38.7442H27.7644V25.0398H4.61654ZM14.8621 13.6629C14.4324 13.1746 14.3966 12.6668 14.8621 12.1264C15.3993 12.2631 15.8909 12.4942 16.3435 12.81C16.4411 12.7677 16.5551 12.7514 16.6658 12.7579C17.1379 12.4226 17.7369 12.2892 18.2643 12.0385C18.8927 12.6505 18.8243 13.2104 18.209 13.7345C17.8639 13.6564 17.5383 13.5327 17.2225 13.3731C17.216 13.4545 17.1932 13.5424 17.1541 13.6368L17.8378 16.8855C18.3587 15.7885 18.8992 14.047 19.0392 12.6342C18.8113 12.3803 18.5671 12.0222 18.3587 11.7162C18.3132 11.6479 18.2676 11.5828 18.222 11.5177C17.7792 11.8172 17.2486 11.9995 16.5876 11.9995C15.8486 11.9962 15.2756 11.7455 14.797 11.3582C14.6635 11.7586 14.4682 12.3087 14.2761 12.5691C14.2631 12.5886 14.2468 12.6049 14.2273 12.6212C14.478 14.1577 15.0152 15.8276 15.5035 16.8855L16.1872 13.6368C16.0863 13.4676 16.0472 13.3243 16.0537 13.2039C15.6891 13.4252 15.2854 13.5685 14.8621 13.6629Z" fill="black"/>
</g>
<defs>
<clipPath id="clip0_1682_19898">
<rect width="32" height="40" fill="white" transform="translate(0 0.296875)"/>
</clipPath>
</defs>
</svg>
