<svg width="36" height="33" viewBox="0 0 36 33" fill="none" xmlns="http://www.w3.org/2000/svg">
<g clip-path="url(#clip0_1682_19691)">
<path d="M33.6127 19.2723C32.9169 22.9692 30.9462 26.2178 28.1779 28.5437C25.3922 30.8841 21.8059 32.293 17.8936 32.293C14.217 32.293 10.8258 31.05 8.12153 28.96C5.35614 26.8262 3.31265 23.8076 2.40735 20.3261L4.40426 19.808C5.19021 22.8382 6.97171 25.4668 9.37906 27.3269C11.7311 29.1433 14.6828 30.2233 17.8907 30.2233C21.3052 30.2233 24.4315 28.9978 26.8505 26.966C29.1647 25.0215 30.8385 22.3347 31.5022 19.2694H29.3685L32.5676 15.3717L35.7668 19.2694H33.6127V19.2723ZM17.8412 20.4018V16.7486C16.5545 16.4225 15.6143 15.9306 15.0176 15.2727C14.4179 14.6119 14.1152 13.8114 14.1152 12.8683C14.1152 11.9135 14.4557 11.1101 15.134 10.4638C15.8122 9.81468 16.7146 9.44208 17.8412 9.34311V8.48438H19.2792V9.34311C20.3329 9.45373 21.1684 9.77102 21.7942 10.2921C22.4143 10.8131 22.8131 11.5118 22.9848 12.385L20.4727 12.6703C20.3184 11.9833 19.9196 11.5176 19.2792 11.2731V14.6818C20.8686 15.0573 21.9514 15.5492 22.5249 16.1489C23.1012 16.7515 23.3894 17.5229 23.3894 18.466C23.3894 19.5198 23.0285 20.4047 22.3036 21.1266C21.5788 21.8485 20.5716 22.2968 19.2792 22.4744V24.1045H17.8412V22.4948C16.7059 22.3725 15.786 22.0028 15.0729 21.3799C14.3597 20.7569 13.9085 19.8749 13.7105 18.7367L16.2809 18.4689C16.3857 18.9347 16.5836 19.3335 16.8747 19.6711C17.1658 20.0088 17.486 20.2504 17.8412 20.4018ZM17.8412 11.241C17.454 11.3633 17.1484 11.5642 16.9242 11.8436C16.6972 12.1231 16.5866 12.4316 16.5866 12.7693C16.5866 13.0779 16.6884 13.3631 16.8951 13.628C17.1018 13.89 17.4191 14.1054 17.8441 14.2655V11.241H17.8412ZM19.2792 20.5473C19.774 20.4513 20.1816 20.2417 20.4901 19.9215C20.8045 19.5984 20.9588 19.2199 20.9588 18.7804C20.9588 18.3932 20.8278 18.0556 20.5629 17.7761C20.3038 17.4938 19.8759 17.2783 19.2763 17.127V20.5473H19.2792ZM2.17156 13.3195C2.86146 9.65458 4.80306 6.43217 7.53061 4.10923C10.3251 1.73099 13.9434 0.295898 17.8907 0.295898C21.3634 0.295898 24.5771 1.40206 27.1999 3.28253C29.8925 5.21248 31.9592 7.9575 33.045 11.1595L32.067 11.4914L31.0889 11.8232C31.0627 11.7417 31.0336 11.6602 31.0045 11.5816C30.0409 8.90065 28.274 6.601 25.9976 4.96796C23.7155 3.33201 20.918 2.36849 17.8936 2.36849C14.447 2.36849 11.2945 3.61437 8.86673 5.68114C6.58455 7.62274 4.93987 10.2863 4.27909 13.3195H6.40116L3.19913 17.2172L0 13.3195H2.17156Z" fill="black"/>
</g>
<defs>
<clipPath id="clip0_1682_19691">
<rect width="35.7697" height="32" fill="white" transform="translate(0 0.295898)"/>
</clipPath>
</defs>
</svg>
