<svg width="35" height="33" viewBox="0 0 35 33" fill="none" xmlns="http://www.w3.org/2000/svg">
<path fill-rule="evenodd" clip-rule="evenodd" d="M0 32.2969H8.99378V21.2047C8.99378 21.1318 9.00219 21.0589 9.01902 20.9887C1.52889 22.0575 1.91041 25.5137 0 32.2969ZM11.4063 9.86854V11.2656L11.8832 11.9192C11.9562 12.0174 11.9954 12.1324 12.0011 12.2474H12.0039C12.175 14.674 12.823 16.1833 13.7936 17.1315C14.739 18.0544 16.0295 18.478 17.4994 18.7136C19.0872 18.4527 20.3328 17.7879 21.2193 16.7443C22.1422 15.6587 22.7033 14.1466 22.8772 12.239C22.8856 12.1408 22.9165 12.0511 22.9641 11.9725L23.3877 11.2712L23.3962 9.81805L24.6473 9.82366L24.6389 11.4086C24.6473 11.5321 24.6193 11.6611 24.5491 11.7761L24.1087 12.5055C23.8927 14.6067 23.2391 16.3011 22.1702 17.5579C21.065 18.8567 19.5389 19.6702 17.6088 19.9704C17.5415 19.9816 17.4742 19.9844 17.4041 19.9732C15.662 19.7067 14.1106 19.1961 12.9184 18.0319C11.757 16.8986 10.9799 15.179 10.7639 12.5139L10.3067 11.8855C10.2085 11.7733 10.1496 11.6275 10.1496 11.4676V9.87135H11.4063V9.86854ZM17.1572 0.296875C17.7575 0.296875 18.341 0.358591 18.9049 0.476414L18.7983 5.50631L20.6301 1.03186C23.211 2.17923 25.1186 4.56373 25.5983 7.43355H26.5886V8.60896H25.7133C25.7133 8.61457 25.7133 8.62019 25.7133 8.6258H8.59823C8.59823 8.62019 8.59823 8.61457 8.59823 8.60896H7.88288V7.43355H8.71325C9.20978 4.47115 11.2268 2.02494 13.9367 0.925261L15.5385 5.43056L15.7068 0.420308C16.1781 0.338954 16.6635 0.296875 17.1572 0.296875ZM16.2791 28.2741H18.1895V30.1845H16.2791V28.2741ZM16.2791 23.55H18.1895V25.4604H16.2791V23.55ZM10.7583 32.2969H17.2357H23.7132V21.2047C23.7132 21.0673 23.744 20.9354 23.8029 20.8204L17.2357 20.8597L10.6685 20.8204C10.7246 20.9354 10.7583 21.0673 10.7583 21.2047V32.2969ZM25.4777 32.2969H34.4715C32.5611 25.5137 32.9426 22.0575 25.4496 20.9915C25.4665 21.0617 25.4749 21.1318 25.4749 21.2075V32.2969H25.4777Z" fill="black"/>
</svg>
