<svg width="37" height="33" viewBox="0 0 37 33" fill="none" xmlns="http://www.w3.org/2000/svg">
<g clip-path="url(#clip0_1682_19709)">
<path fill-rule="evenodd" clip-rule="evenodd" d="M0 4.55911C-3.553e-09 4.31548 0.0469638 4.07423 0.13821 3.84915C0.229456 3.62407 0.363198 3.41955 0.531799 3.24728C0.700399 3.07501 0.900558 2.93835 1.12085 2.84512C1.34113 2.75189 1.57724 2.7039 1.81567 2.7039C2.05411 2.7039 2.29021 2.75189 2.5105 2.84512C2.73079 2.93835 2.93095 3.07501 3.09955 3.24728C3.26815 3.41955 3.40189 3.62407 3.49314 3.84915C3.58438 4.07423 3.63135 4.31548 3.63135 4.55911V28.5814H35.1843C35.6663 28.5814 36.1285 28.777 36.4693 29.1252C36.8101 29.4734 37.0015 29.9457 37.0015 30.4382C37.0015 30.9306 36.8101 31.4029 36.4693 31.7511C36.1285 32.0993 35.6663 32.2949 35.1843 32.2949H0V4.55911ZM30.6828 2.49469L29.7795 1.30096C29.7114 1.2232 29.6638 1.12903 29.6412 1.02732C29.6185 0.925599 29.6216 0.819668 29.65 0.719477C29.8096 0.236446 30.3516 0.294902 30.74 0.310286C31.839 0.390278 34.269 0.568722 34.835 0.590259C34.9282 0.587344 35.0208 0.606575 35.1055 0.646436C35.1901 0.686297 35.2646 0.7457 35.323 0.819966C35.3814 0.894232 35.4221 0.981334 35.4419 1.07441C35.4617 1.16749 35.4601 1.264 35.4373 1.35634C35.3228 1.9409 34.9585 4.60218 34.7688 5.66362C34.7026 6.03281 34.5942 6.51584 34.1335 6.54969C34.0321 6.55326 33.9314 6.5306 33.8409 6.48381C33.7503 6.43701 33.6728 6.3676 33.6156 6.28202L32.7122 5.08829L32.3419 4.60833L27.8193 8.11261V8.1926C27.8193 8.93188 27.5318 9.64087 27.0202 10.1636C26.5086 10.6864 25.8147 10.98 25.0912 10.98C24.3677 10.98 23.6738 10.6864 23.1622 10.1636C22.6506 9.64087 22.3632 8.93188 22.3632 8.1926C22.3632 8.13107 22.3632 8.06954 22.3632 8.00801L19.2046 5.67285C18.7154 6.01861 18.129 6.19134 17.5347 6.16468C16.9405 6.13801 16.3711 5.91342 15.9135 5.52517L12.8422 7.7588C12.9075 7.99314 12.9429 8.23512 12.9476 8.47873C12.9446 9.07453 12.7537 9.65347 12.4031 10.1295C12.0525 10.6056 11.5609 10.9535 11.0014 11.1214C10.442 11.2893 9.84441 11.2684 9.29751 11.0617C8.75062 10.855 8.28356 10.4735 7.9657 9.97402C7.64785 9.47451 7.49616 8.88357 7.53317 8.28896C7.57017 7.69435 7.79389 7.1278 8.1711 6.67345C8.54832 6.2191 9.0589 5.90118 9.62701 5.76693C10.1951 5.63267 10.7905 5.68923 11.3246 5.92821L14.9379 3.30077C15.0017 2.60329 15.3201 1.95591 15.8299 1.48747C16.3396 1.01903 17.0033 0.763882 17.6889 0.772803C18.3744 0.781723 19.0315 1.05406 19.5294 1.53561C20.0273 2.01716 20.3295 2.67262 20.3759 3.37153C20.3759 3.43306 20.3759 3.49459 20.3759 3.55305L23.5405 5.89129C24.0084 5.55905 24.5664 5.38484 25.1361 5.39312C25.7058 5.40139 26.2587 5.59174 26.7172 5.93744L30.8574 2.72236L30.6828 2.49469ZM30.6557 9.68785H34.4165C34.5206 9.68784 34.6205 9.72988 34.6944 9.8048C34.7683 9.87972 34.8102 9.98145 34.811 10.0878V25.0218C34.8102 25.1284 34.7684 25.2304 34.6946 25.3059C34.6208 25.3813 34.5209 25.424 34.4165 25.4248H30.6557C30.6039 25.4248 30.5526 25.4144 30.5047 25.3941C30.4569 25.3739 30.4134 25.3442 30.3768 25.3067C30.3401 25.2693 30.3111 25.2249 30.2913 25.176C30.2714 25.1271 30.2612 25.0747 30.2612 25.0218V10.0878C30.262 9.98145 30.3039 9.87972 30.3778 9.8048C30.4517 9.72988 30.5516 9.68784 30.6557 9.68785ZM23.2123 14.8043H26.9731C27.0249 14.8043 27.0762 14.8147 27.1241 14.835C27.172 14.8552 27.2154 14.8849 27.2521 14.9223C27.2887 14.9597 27.3177 15.0042 27.3376 15.0531C27.3574 15.102 27.3676 15.1544 27.3676 15.2073V25.0218C27.3668 25.1284 27.325 25.2304 27.2512 25.3059C27.1774 25.3813 27.0775 25.424 26.9731 25.4248H23.2123C23.1605 25.4248 23.1092 25.4144 23.0614 25.3941C23.0135 25.3739 22.97 25.3442 22.9334 25.3067C22.8968 25.2693 22.8677 25.2249 22.8479 25.176C22.8281 25.1271 22.8179 25.0747 22.8179 25.0218V15.2073C22.8179 15.1004 22.8594 14.9979 22.9334 14.9223C23.0074 14.8467 23.1077 14.8043 23.2123 14.8043ZM15.766 9.68785H19.5298C19.6336 9.68785 19.7332 9.72998 19.8066 9.80499C19.88 9.88 19.9212 9.98173 19.9212 10.0878V25.0218C19.9205 25.1279 19.8791 25.2295 19.8059 25.3048C19.7327 25.3801 19.6336 25.4232 19.5298 25.4248H15.766C15.6616 25.424 15.5617 25.3813 15.4879 25.3059C15.4141 25.2304 15.3723 25.1284 15.3715 25.0218V10.0878C15.3723 9.98145 15.4142 9.87972 15.4881 9.8048C15.562 9.72988 15.6619 9.68784 15.766 9.68785ZM8.32259 15.6288H12.0834C12.1352 15.6288 12.1865 15.6392 12.2344 15.6595C12.2822 15.6797 12.3257 15.7094 12.3623 15.7469C12.399 15.7843 12.428 15.8287 12.4478 15.8776C12.4677 15.9265 12.4779 15.9789 12.4779 16.0319V25.0218C12.4771 25.1284 12.4353 25.2304 12.3615 25.3059C12.2877 25.3813 12.1878 25.424 12.0834 25.4248H8.32259C8.27079 25.4248 8.2195 25.4144 8.17164 25.3941C8.12379 25.3739 8.0803 25.3442 8.04367 25.3067C8.00704 25.2693 7.97799 25.2249 7.95817 25.176C7.93834 25.1271 7.92814 25.0747 7.92814 25.0218V16.0319C7.92814 15.925 7.9697 15.8224 8.04367 15.7469C8.11765 15.6713 8.21798 15.6288 8.32259 15.6288Z" fill="black"/>
</g>
<defs>
<clipPath id="clip0_1682_19709">
<rect width="37" height="32" fill="white" transform="translate(0 0.295898)"/>
</clipPath>
</defs>
</svg>
