<svg width="31" height="33" viewBox="0 0 31 33" fill="none" xmlns="http://www.w3.org/2000/svg">
<g clip-path="url(#clip0_1682_19717)">
<path fill-rule="evenodd" clip-rule="evenodd" d="M15.4999 0.295898C24.251 0.295898 31 7.69317 31 16.2959C31 24.8996 24.2521 32.2959 15.4999 32.2959C6.74744 32.2959 0 24.8998 0 16.2959C0 7.69124 6.74569 0.295898 15.4999 0.295898ZM18.8535 20.294C19.0426 20.6739 19.2827 21.0595 19.557 21.3831C20.3336 22.3001 21.2761 22.3831 22.4197 22.6043C24.0649 22.9219 25.6845 24.1426 26.4373 25.7168C28.5103 23.1303 29.7374 19.8211 29.7374 16.2959C29.7374 8.38636 23.5609 1.55818 15.4999 1.55818C7.39262 1.55818 1.26262 8.43022 1.26262 16.2959C1.26262 19.8097 2.4815 23.1087 4.542 25.6914C5.318 23.9931 7.06775 22.9822 8.83131 22.7464C10.0789 22.5798 10.9707 22.5468 11.5981 21.3689C11.7847 21.0187 11.9268 20.6221 12.0406 20.2518C11.5198 19.7481 11.1192 19.183 10.9926 18.1991C10.8372 18.1831 10.6869 18.135 10.5511 18.0579C9.98269 17.735 9.76844 16.9644 9.73706 16.3529C9.70438 15.7114 9.741 14.9051 10.2941 14.663C10.1899 13.1834 10.5036 10.6943 8.9275 10.2179C11.9509 6.48276 15.4359 4.45119 18.0527 7.7739C21.0844 7.93311 22.2436 12.6168 20.0882 14.8521L20.0875 14.8595C20.5908 14.8142 21.0491 15.0328 21.2109 15.5351C21.407 16.1435 20.9977 16.9703 20.7989 17.5336C20.7231 17.748 20.6517 17.9012 20.4809 18.0369C20.3279 18.1599 20.1546 18.2147 19.9106 18.2155C19.8404 19.1653 19.4261 19.7237 18.8535 20.294ZM18.4684 20.6634C18.8822 21.4482 19.4895 22.227 20.1677 22.5076C17.5026 24.4625 13.8231 24.3495 11.082 22.6789C11.785 22.3003 12.1909 21.43 12.4568 20.6285C12.6039 20.7555 12.7509 20.8822 12.8962 21.0112C13.7731 21.7911 14.6381 22.1982 15.5176 22.2066C16.4041 22.215 17.2629 21.8196 18.1184 20.9944L18.4684 20.6634ZM10.2701 15.52C10.4404 15.0325 10.797 15.0756 11.3006 15.246C11.4949 15.3472 11.4647 15.3036 11.6432 15.3686C11.3805 14.178 11.9681 12.8756 13.0151 12.2627C13.7771 11.8898 14.7347 11.9143 15.7086 11.6631C16.4041 11.4839 17.1082 11.1639 17.7555 10.4582C18.5586 10.8536 19.1865 11.4907 19.4988 12.5888C19.6758 13.3412 19.6901 14.3294 19.4632 15.6527C20.0862 15.1809 20.9847 15.2247 20.7021 16.2702L20.316 17.3633C20.2237 17.6248 20.162 17.7195 19.8312 17.702C19.6854 17.6942 19.5383 17.6379 19.3918 17.5411C19.5271 19.1539 18.7437 19.6803 17.7638 20.6259C16.2542 22.0821 14.8035 22.022 13.2367 20.6286C12.3191 19.8126 11.5037 19.3167 11.4631 17.6389C11.2251 17.7117 10.9999 17.725 10.8036 17.6133C10.4121 17.3907 10.2692 16.7421 10.248 16.3269C10.2394 16.1601 10.2466 15.6901 10.2701 15.52Z" fill="black"/>
</g>
<defs>
<clipPath id="clip0_1682_19717">
<rect width="31" height="32" fill="white" transform="translate(0 0.295898)"/>
</clipPath>
</defs>
</svg>
