<svg width="32" height="31" viewBox="0 0 32 31" fill="none" xmlns="http://www.w3.org/2000/svg">
<g clip-path="url(#clip0_1682_19889)">
<path fill-rule="evenodd" clip-rule="evenodd" d="M17.2939 26.1255H22.9996C23.4579 25.6758 23.9605 25.2081 24.4709 24.7327C25.5413 23.733 26.6584 22.6897 27.8069 21.3842C29.1194 19.8912 29.26 19.3746 29.6584 17.9124C29.734 17.6374 29.8173 17.3291 29.9267 16.9461L30.609 14.5794L30.6168 14.5537C30.9814 13.5 31.01 12.8036 30.859 12.4027C30.8121 12.2794 30.7522 12.1971 30.6819 12.1534C30.6272 12.1175 30.5543 12.1046 30.4788 12.1123C30.3017 12.1303 30.1012 12.2408 29.9189 12.4387L27.8928 17.2006C27.8746 17.2442 27.8486 17.2854 27.8199 17.3213C27.7001 17.5346 27.5387 17.7428 27.3303 17.9407L23.7366 21.8956C23.5413 22.1115 23.2053 22.1295 22.9892 21.9367C22.7704 21.744 22.7522 21.4125 22.9475 21.1992L26.5439 17.2442C26.5595 17.2263 26.5751 17.2083 26.5933 17.1929C26.9657 16.8434 27.0829 16.4656 27.0178 16.1906C26.997 16.1058 26.9605 16.0339 26.9084 15.985C26.859 15.9414 26.7939 15.9105 26.7131 15.9028C26.3928 15.8694 25.9215 16.1033 25.3459 16.774C25.3303 16.792 25.3121 16.8099 25.2939 16.8279L23.9006 18.0409L23.8928 18.0486C22.385 19.4569 21.7366 19.7909 20.5543 20.4C20.3069 20.5285 20.0361 20.6672 19.7001 20.8471C19.5673 20.9191 19.4371 21.0065 19.3095 21.1015C19.1741 21.2043 19.0439 21.3097 18.9215 21.4125C18.2965 21.9316 17.9683 22.353 17.7808 22.8182C17.5855 23.3013 17.5152 23.8898 17.4189 24.6967C17.3798 25.0231 17.3512 25.3443 17.3277 25.6655C17.3095 25.8197 17.3017 25.9739 17.2939 26.1255ZM5.65584 12.6751C5.65584 8.26789 9.87199 10.7092 10.1949 8.00577C10.2314 7.71024 9.52563 6.5898 9.36678 6.05271C9.02303 5.51048 8.89803 4.64959 9.27563 4.07395C9.42667 3.84524 9.36157 3.01519 9.36157 2.70167C9.36157 1.81509 9.78605 1.30627 10.359 0.83342C10.5699 0.661242 10.6064 0.453087 10.9111 0.378563C12.4241 0.0162192 14.9006 0.838559 14.9006 2.70167C14.9006 3.09742 14.8095 3.82211 15.0256 4.13306C15.2366 4.43373 15.2626 4.8706 15.1871 5.2792C15.1038 5.34344 15.023 5.41026 14.9423 5.47964C14.7626 5.6364 14.5829 5.81372 14.4058 6.00131C14.398 6.00902 14.3902 6.01673 14.3824 6.02444L14.3798 6.02701C14.2939 6.10925 14.2314 6.21718 14.1975 6.33796C14.1272 6.59751 14.2157 6.86477 14.4058 7.03438C14.1819 7.44555 13.9814 7.83359 14.0152 8.00577C14.0699 8.28331 14.2782 8.53772 14.5777 8.77414V8.77928C14.5777 8.7947 14.5803 8.80755 14.5803 8.82297C14.5907 8.92319 14.6064 9.02084 14.6298 9.10565C14.6558 9.20073 14.6923 9.29581 14.7392 9.38576C14.8173 9.53995 14.9241 9.67358 15.0595 9.78151C15.1272 9.83547 15.2001 9.88173 15.2782 9.91771C15.2991 9.94084 15.3199 9.96397 15.3381 9.98709L15.372 10.0256C14.7548 10.1413 14.3277 10.2518 13.9683 10.6038C13.5699 10.9945 13.4163 11.5418 13.4163 12.5312C13.4163 12.58 13.4215 12.6289 13.4293 12.6751H5.65584ZM18.6246 5.12758C19.3824 0.717778 23.7496 0.823141 24.4058 5.44366C24.8381 8.48632 26.6845 8.37582 23.7991 8.37582H22.648C22.6428 9.14933 22.5204 9.54509 23.3355 9.98195C24.148 10.4163 26.3433 10.6398 26.3433 11.7397V12.4438C26.3433 12.5004 26.2965 12.5466 26.2392 12.5466H21.1767V12.5312C21.1767 11.5418 21.023 10.9945 20.6246 10.6038C20.3095 10.2955 19.9449 10.1747 19.4449 10.0719C19.5439 10.0282 19.6376 9.97938 19.7262 9.92799C20.4423 9.50397 20.3199 9.07995 20.3147 8.37839H20.0048C19.9996 8.34241 19.9944 8.30901 19.9866 8.2756C19.9527 8.12141 19.898 7.97236 19.8173 7.83873C19.8043 7.8156 19.7887 7.79247 19.773 7.76935V7.66655C19.8694 7.31449 19.8928 6.92902 19.8329 6.56924C19.7626 6.16578 19.5855 5.78802 19.2808 5.50534C19.1246 5.35886 18.9501 5.25093 18.76 5.1764C18.7131 5.15585 18.6689 5.14043 18.6246 5.12758ZM14.8772 6.51785C15.9605 5.3383 17.2105 4.69842 18.148 5.7469C18.3928 5.75718 18.6142 5.83942 18.7965 6.00902C19.1819 6.36623 19.2418 7.03695 19.0647 7.56633V8.03147C19.1845 8.10856 19.26 8.25504 19.2965 8.41951C19.3199 8.52487 19.3251 8.64308 19.3147 8.75615C19.3043 8.87179 19.273 8.9823 19.2262 9.07481C19.1584 9.20587 19.0569 9.29838 18.9189 9.31637C18.7834 9.45771 18.6506 9.6119 18.5334 9.75838C18.4032 9.92028 18.2939 10.0719 18.2157 10.1952C18.1558 10.2903 18.1741 10.3546 18.1975 10.4265C18.2079 10.4625 18.2183 10.5011 18.2262 10.5396C18.4631 10.591 18.6767 10.6295 18.8694 10.6655C20.0907 10.8917 20.4709 10.9611 20.4709 12.5286C20.4709 12.6083 20.4058 12.6725 20.3251 12.6725H14.2704C14.1897 12.6725 14.1246 12.6083 14.1246 12.5286C14.1246 10.9611 14.5022 10.8891 15.7262 10.6655C15.9189 10.6295 16.1376 10.5884 16.3746 10.5396C16.3824 10.5088 16.3928 10.4805 16.4032 10.4497C16.4293 10.3803 16.4527 10.3109 16.3798 10.1952C16.3017 10.0693 16.1923 9.91771 16.0621 9.75838C15.9449 9.6119 15.8121 9.46028 15.6767 9.31637C15.5387 9.29581 15.4371 9.2033 15.3694 9.07481C15.3225 8.98487 15.2939 8.87179 15.2808 8.75615C15.2704 8.64308 15.2756 8.52744 15.2991 8.41951C15.3329 8.25504 15.4084 8.11113 15.5282 8.03404L15.3694 7.94152C15.3251 7.47639 15.4501 6.67203 14.8772 6.51785ZM14.7053 26.1255H8.99699C8.53865 25.6758 8.03605 25.2081 7.52563 24.7327C6.45532 23.733 5.33813 22.6897 4.18969 21.3842C2.87719 19.8912 2.73657 19.3746 2.33813 17.9124C2.26261 17.6374 2.17928 17.3291 2.0699 16.9461L1.38761 14.5794L1.3798 14.5537C1.01522 13.5 0.98657 12.8036 1.13761 12.4027C1.18449 12.2794 1.24438 12.1971 1.31469 12.1534C1.36938 12.1175 1.4423 12.1046 1.51782 12.1123C1.6949 12.1303 1.89542 12.2408 2.07772 12.4387L4.10376 17.2006C4.12199 17.2442 4.14803 17.2854 4.17667 17.3213C4.29647 17.5346 4.45792 17.7428 4.66626 17.9407L8.26001 21.8956C8.45532 22.1115 8.79126 22.1295 9.0074 21.9367C9.22355 21.744 9.24438 21.4125 9.04907 21.1992L5.45792 17.2391C5.4423 17.2211 5.42667 17.2031 5.40844 17.1877C5.03605 16.8382 4.91886 16.4605 4.98397 16.1855C5.0048 16.1007 5.04126 16.0287 5.09334 15.9799C5.14282 15.9362 5.20792 15.9054 5.28865 15.8977C5.60897 15.8643 6.08292 16.0981 6.65584 16.7688C6.65584 16.7688 6.70532 16.8177 6.71053 16.8228L8.10376 18.0357L8.11157 18.0435C9.61938 19.4517 10.2678 19.7858 11.4501 20.3948C11.6975 20.5233 11.9683 20.6621 12.3043 20.842C12.4371 20.9139 12.5673 21.0013 12.6949 21.0964C12.8303 21.1992 12.9605 21.3046 13.0829 21.4073C13.7079 21.9264 14.036 22.3479 14.2235 22.813C14.4189 23.2962 14.4892 23.8846 14.5855 24.6916C14.6246 25.0179 14.6532 25.3392 14.6767 25.6604C14.6897 25.8197 14.6975 25.9739 14.7053 26.1255ZM7.66886 26.3054C7.58813 26.3979 7.53865 26.5187 7.53865 26.6498V29.7695C7.53865 30.0599 7.77824 30.2938 8.0699 30.2938H15.2522C15.5465 30.2938 15.7834 30.0573 15.7834 29.7695V26.6189C15.7834 26.2848 15.7626 25.9251 15.7392 25.591C15.7157 25.2492 15.6845 24.91 15.6454 24.5734C15.5413 23.6919 15.4631 23.0469 15.2131 22.4276C14.9553 21.7928 14.5413 21.2454 13.773 20.6056C13.6324 20.4874 13.4892 20.3691 13.3381 20.2586C13.1793 20.1404 13.0074 20.0274 12.8147 19.922C12.5022 19.755 12.2105 19.6033 11.9449 19.4646C10.8512 18.8992 10.2522 18.5908 8.84334 17.2751C8.83292 17.2648 8.8199 17.2545 8.80949 17.2468L7.45011 16.0621C6.61938 15.1036 5.80688 14.7849 5.18449 14.8518H5.18188C4.87719 14.8826 4.61678 15.0008 4.40844 15.1807L3.03605 11.953H3.03344C3.01261 11.9067 2.98657 11.8631 2.95272 11.8219C2.57251 11.3722 2.09074 11.1101 1.6298 11.0638C1.31469 11.033 1.01001 11.0998 0.744382 11.2694C0.491778 11.4313 0.283445 11.6832 0.153236 12.0301C-0.0759303 12.634 -0.0707219 13.572 0.377195 14.8697L1.05428 17.2211C1.15324 17.5603 1.23917 17.8867 1.3199 18.1745C1.76261 19.8064 1.91886 20.3846 3.39542 22.0601C4.56469 23.3887 5.70792 24.4577 6.80688 25.4831C7.09074 25.7606 7.3772 26.0304 7.66886 26.3054ZM8.68449 27.174C8.7548 27.1894 8.82772 27.1894 8.90063 27.174H14.7183V29.2453H8.60115V27.174H8.68449ZM24.3303 26.3054C24.4111 26.3979 24.4605 26.5187 24.4605 26.6498V29.7695C24.4605 30.0599 24.2236 30.2938 23.9293 30.2938H16.7496C16.4553 30.2938 16.2183 30.0573 16.2183 29.7695V26.6189C16.2183 26.6009 16.2183 26.5804 16.2209 26.5624C16.2288 26.2257 16.2418 25.8994 16.2626 25.591C16.2861 25.2492 16.3173 24.91 16.3564 24.5734C16.4605 23.6919 16.5387 23.0469 16.7887 22.4276C17.0465 21.7928 17.4605 21.2454 18.2288 20.6056C18.3694 20.4874 18.5126 20.3691 18.6637 20.2586C18.8225 20.1404 18.9944 20.0274 19.1871 19.922C19.4996 19.755 19.7913 19.6033 20.0569 19.4646C21.1506 18.8992 21.7496 18.5908 23.1584 17.2751C23.1689 17.2648 23.1819 17.2545 23.1923 17.2468L24.5517 16.0621C25.3824 15.1036 26.1949 14.7849 26.8173 14.8518H26.8199C27.1246 14.8826 27.385 15.0008 27.5933 15.1807L28.9657 11.953H28.9683C28.9892 11.9067 29.0152 11.8631 29.0491 11.8219C29.4293 11.3722 29.9111 11.1101 30.372 11.0638C30.6871 11.033 30.9918 11.0998 31.2574 11.2694C31.51 11.4313 31.7183 11.6832 31.8486 12.0301C32.0777 12.634 32.0725 13.572 31.6246 14.8697L30.9475 17.2211C30.8486 17.5603 30.7626 17.8867 30.6819 18.1745C30.2392 19.8064 30.0829 20.3846 28.6064 22.0601C27.4371 23.3887 26.2939 24.4577 25.1949 25.4831C24.9084 25.7606 24.622 26.0304 24.3303 26.3054ZM23.3147 27.174C23.2444 27.1894 23.1715 27.1894 23.0986 27.174H17.2808V29.2453H23.398V27.174H23.3147Z" fill="black"/>
</g>
<defs>
<clipPath id="clip0_1682_19889">
<rect width="32" height="30" fill="white" transform="translate(0 0.296875)"/>
</clipPath>
</defs>
</svg>
