<svg width="27" height="33" viewBox="0 0 27 33" fill="none" xmlns="http://www.w3.org/2000/svg">
<g clip-path="url(#clip0_1682_20375)">
<path d="M7.39714 7.77672C7.43099 7.91995 7.33984 8.06057 7.19922 8.09182C7.05599 8.12307 6.91537 8.03453 6.88412 7.8939C6.82422 7.63609 6.83724 7.40432 6.89974 7.19078C6.96224 6.98245 7.07162 6.79755 7.20964 6.62828C7.30078 6.5163 7.46745 6.49807 7.57943 6.58922C7.59245 6.59963 7.60547 6.61265 7.61589 6.62567C8.00912 7.03974 8.46224 7.28453 8.89193 7.34963C9.09766 7.38088 9.29818 7.37047 9.48307 7.31838C9.66537 7.2663 9.82943 7.17515 9.97266 7.04495C10.207 6.82359 10.3815 6.48765 10.4518 6.02672C10.4727 5.88349 10.6081 5.78192 10.7513 5.80536C10.806 5.81317 10.8529 5.83661 10.8893 5.87047C11.2643 6.18036 11.6315 6.34182 11.9909 6.35745C12.3529 6.37307 12.7227 6.24286 13.0951 5.96943C13.2096 5.88609 13.3685 5.90953 13.4544 6.0163C13.944 6.62567 14.4154 6.88609 14.8711 6.83922C15.3451 6.78974 15.8346 6.41474 16.3398 5.75849C16.3971 5.68297 16.4909 5.64651 16.5794 5.65692C17.6576 5.78453 18.306 5.46942 18.6107 5.00849C18.7799 4.75067 18.8451 4.44599 18.819 4.1439C18.793 3.83922 18.6758 3.54495 18.4805 3.31317C18.1549 2.92776 17.6055 2.71422 16.8893 2.93297C16.7878 2.96422 16.681 2.93036 16.6133 2.85484C16.2227 2.40953 15.8346 2.09442 15.4622 1.91213C15.1654 1.7637 14.8815 1.7012 14.6211 1.72463C14.3685 1.74547 14.1341 1.84963 13.9232 2.03453C13.7383 2.19599 13.5716 2.42255 13.4284 2.71161C13.3659 2.83661 13.2201 2.8913 13.0951 2.83922C12.8945 2.75849 12.6966 2.7064 12.5013 2.68036C12.306 2.65432 12.1107 2.65432 11.9154 2.68036C11.7904 2.69599 11.6758 2.62567 11.6341 2.5137C11.3633 1.80536 11.0013 1.46942 10.5846 1.37828C10.1471 1.28192 9.61589 1.43297 9.04557 1.69599C8.93359 1.74807 8.80339 1.71422 8.73047 1.62047C8.29557 1.16213 7.77995 0.912133 7.28255 0.844425C6.91537 0.794946 6.55859 0.841821 6.2513 0.974633C5.94922 1.10484 5.69401 1.31838 5.52214 1.60484C5.32943 1.92776 5.24089 2.34703 5.3138 2.84963C5.33464 2.99286 5.23307 3.12828 5.08984 3.14911H5.08203C4.33203 3.23505 3.81901 3.64911 3.60547 4.12828C3.52474 4.31057 3.48568 4.50328 3.49609 4.68818C3.50391 4.86786 3.55859 5.03974 3.66016 5.19338C3.90234 5.55797 4.42578 5.81318 5.27474 5.77672C5.42057 5.77151 5.54297 5.88349 5.54818 6.02932C5.55078 6.09963 5.52474 6.16734 5.48047 6.21682C5.30859 6.41213 5.16276 6.61265 5.04818 6.81838C4.9362 7.0189 4.85547 7.22724 4.80859 7.44338C4.77995 7.58661 4.63932 7.67776 4.49609 7.64911C4.35286 7.62047 4.26172 7.47984 4.29036 7.33661C4.34766 7.06838 4.44661 6.81057 4.58464 6.56317C4.63672 6.46942 4.69141 6.38088 4.75391 6.28974C3.9987 6.21422 3.49609 5.89911 3.21745 5.48505C3.0612 5.25067 2.97786 4.98505 2.96484 4.71161C2.95182 4.44599 3.00391 4.16995 3.12109 3.91213C3.37891 3.33661 3.94401 2.83401 4.76172 2.66474C4.73307 2.14651 4.84766 1.69859 5.06641 1.33401C5.29557 0.951196 5.63672 0.664737 6.03776 0.490258C6.43359 0.318383 6.88672 0.258487 7.34766 0.320987C7.91276 0.399112 8.49089 0.662133 8.98828 1.1387C9.59245 0.878279 10.1706 0.745467 10.694 0.86005C11.2435 0.982446 11.707 1.36265 12.0482 2.13609C12.2227 2.12567 12.3971 2.13349 12.569 2.15692C12.7357 2.18036 12.9023 2.21682 13.0664 2.2689C13.2174 2.0137 13.3867 1.80276 13.5768 1.63609C13.8737 1.37567 14.2122 1.22984 14.5768 1.19599C14.9336 1.16474 15.3112 1.24547 15.6966 1.43557C16.0924 1.63088 16.4987 1.94599 16.8997 2.38349C17.7721 2.17515 18.4596 2.46942 18.8841 2.97463C19.1523 3.29234 19.3112 3.69338 19.3477 4.10224C19.3815 4.5137 19.2904 4.93817 19.0534 5.30015C18.6654 5.8913 17.8945 6.30536 16.6706 6.19859C16.1055 6.89911 15.5273 7.30276 14.931 7.36526C14.3424 7.42776 13.7669 7.16213 13.2044 6.53453C12.7982 6.78453 12.3893 6.90432 11.9727 6.88609C11.6055 6.87047 11.2409 6.74807 10.8815 6.5189C10.7643 6.90172 10.5716 7.2064 10.332 7.43036C10.1263 7.62307 9.88672 7.75588 9.6263 7.8288C9.36849 7.90172 9.09505 7.91734 8.8138 7.87307C8.35547 7.80276 7.88411 7.5814 7.45964 7.2064C7.4388 7.25067 7.42057 7.29495 7.40755 7.33922C7.36589 7.46943 7.35807 7.61526 7.39714 7.77672ZM0.00390625 30.9616H24.4154V32.2976H0.00390625V30.9616ZM12.207 12.0163L11.918 14.7975H15.043L14.7539 12.0163H12.207ZM3.99089 8.44078L3.58724 12.3262H7.95182L7.54818 8.44078H3.99089ZM3.51172 13.0658L3.3138 14.972H8.22787L8.02995 13.0658H3.51172ZM3.23828 15.7142L2.94401 18.472L1.10547 18.1335V30.2949H23.3138V22.2116L15.556 20.7871L15.293 17.222H11.668L11.4909 20.0397L8.70964 19.5293L8.30339 15.7142H3.23828ZM11.8633 15.3288L11.7227 16.6934H15.2383L15.0977 15.3288H11.8633ZM14.6419 23.9304H18.3529V28.3887H14.6419V23.9304ZM9.87891 23.9304H13.5898V28.3887H9.87891V23.9304ZM5.11589 23.9304H8.82682V28.3887H5.11589V23.9304ZM19.9961 5.38349C19.8633 5.3262 19.8008 5.16995 19.8607 5.03713C19.918 4.90432 20.0742 4.84182 20.207 4.90172C20.3034 4.94338 20.3841 4.99807 20.4648 5.05536C20.6081 4.71161 20.8112 4.42776 21.0482 4.21161C21.3424 3.94599 21.6914 3.78453 22.056 3.74286C22.4206 3.7012 22.8008 3.77672 23.1549 3.98505C23.4701 4.16995 23.7643 4.45901 24.0065 4.86005C25.1315 4.62047 25.918 4.9512 26.3763 5.50067C26.7018 5.8913 26.8529 6.3913 26.8398 6.87567C26.8268 7.36786 26.6445 7.84703 26.3008 8.19599C25.8529 8.64911 25.1419 8.87828 24.1888 8.60484C23.9596 9.04234 23.6211 9.37567 23.2357 9.58401C22.9805 9.72463 22.7044 9.80797 22.431 9.83401C22.1497 9.86005 21.8711 9.82359 21.6107 9.71682C21.319 9.59963 21.0534 9.39651 20.8451 9.10224C20.431 9.25328 20.0273 9.34963 19.6341 9.36265C19.2435 9.37567 18.8659 9.30536 18.5065 9.13088C18.0742 9.78713 17.5664 10.183 16.9779 10.3054C16.4466 10.4147 15.8659 10.2949 15.2331 9.93297V11.3158C15.2331 11.4616 15.1159 11.5814 14.9674 11.5814H12.9544C12.8086 11.5814 12.6888 11.4642 12.6888 11.3158V8.88349C12.4284 8.86005 12.1732 8.78974 11.9258 8.68036C11.6003 8.53453 11.2904 8.31838 10.9909 8.03192C10.8841 7.93036 10.8815 7.7637 10.9805 7.65953C11.082 7.55276 11.2487 7.55015 11.3529 7.64911C11.6081 7.8939 11.8711 8.0788 12.1393 8.19859C12.3945 8.31318 12.6549 8.36786 12.9232 8.36526C12.9388 8.37047 12.9466 8.37047 12.957 8.37047C13.1029 8.37047 13.2227 8.48765 13.2227 8.63609V11.058H14.707V9.4538C14.707 9.40172 14.7227 9.34703 14.7565 9.30015C14.8398 9.18036 15.0065 9.15432 15.1237 9.23765C15.793 9.71682 16.3763 9.89651 16.8737 9.79234C17.3685 9.69078 17.8034 9.30276 18.1862 8.64651L18.1914 8.63869C18.2695 8.5163 18.4336 8.47984 18.556 8.55797C18.8867 8.7689 19.2435 8.84963 19.6185 8.83922C20.0065 8.82619 20.418 8.71682 20.8424 8.54234C20.9674 8.48505 21.1185 8.53192 21.1862 8.65432C21.3451 8.94338 21.5638 9.13088 21.8086 9.22984C21.9909 9.30276 22.1862 9.3288 22.3841 9.31057C22.5872 9.29234 22.793 9.22724 22.9857 9.12307C23.3294 8.93557 23.6263 8.61786 23.8008 8.19338C23.8503 8.05797 23.9987 7.98765 24.1367 8.03453C24.9805 8.33401 25.5768 8.18036 25.9258 7.8262C26.1732 7.5762 26.3034 7.22463 26.3138 6.86265C26.3242 6.49547 26.2122 6.12307 25.9727 5.83661C25.6107 5.40172 24.944 5.15692 23.9518 5.41213C23.832 5.44859 23.7018 5.39651 23.6419 5.28192C23.4284 4.87567 23.168 4.59963 22.8893 4.43557C22.6393 4.28713 22.3711 4.23245 22.1159 4.2637C21.8607 4.29234 21.6133 4.40953 21.4023 4.59703C21.1628 4.81317 20.9701 5.12567 20.8607 5.52151C20.8581 5.53453 20.8529 5.54495 20.8477 5.55797C20.7878 5.69078 20.6341 5.75067 20.5013 5.69338C20.3867 5.6439 20.2956 5.5762 20.2044 5.51109C20.1289 5.46161 20.0586 5.41213 19.9961 5.38349Z" fill="black"/>
</g>
<defs>
<clipPath id="clip0_1682_20375">
<rect width="26.8359" height="32" fill="white" transform="translate(0 0.296875)"/>
</clipPath>
</defs>
</svg>
