<svg width="30" height="33" viewBox="0 0 30 33" fill="none" xmlns="http://www.w3.org/2000/svg">
<path d="M7.3719 19.159C5.50337 19.7846 3.88356 19.4652 2.6362 18.6441C1.84504 18.1235 1.21137 17.4036 0.767045 16.5993C0.324597 15.7951 0.0627529 14.9033 0.0127588 14.0371C-0.0509837 12.9266 0.227734 11.8486 0.906404 11.0206C0.330846 10.1113 0.205236 9.06646 0.412712 8.05346C0.575818 7.25668 0.949524 6.48052 1.47071 5.81247C1.9894 5.14692 2.65995 4.58262 3.41986 4.20766C4.40349 3.72147 5.53211 3.54524 6.68073 3.8552C6.95694 2.82157 7.62687 2.00542 8.51176 1.41361C9.31167 0.87805 10.2878 0.532465 11.2946 0.383107C12.2919 0.235 13.3324 0.27687 14.2723 0.514967C15.4091 0.802433 16.4083 1.37674 17.0464 2.24976C17.9825 1.58797 19.1593 1.35049 20.3498 1.44298C21.2928 1.51672 22.2539 1.80107 23.1057 2.24601C23.9706 2.69659 24.7299 3.31526 25.256 4.05018C25.8054 4.81634 26.1097 5.70248 26.0422 6.65675C27.6083 6.8086 28.76 7.76287 29.4106 9.02334C29.723 9.6289 29.9161 10.3101 29.9786 11.0062C30.0405 11.7018 29.9724 12.4117 29.763 13.0741C29.2993 14.5414 28.1732 15.7926 26.2841 16.2119C26.329 16.6943 26.2491 17.1743 26.0747 17.6248C25.8922 18.0973 25.6035 18.536 25.2461 18.9078C24.8917 19.2759 24.4655 19.584 24.0043 19.7983C23.2113 20.167 22.307 20.2627 21.4602 19.9352L22.0077 18.5191C22.4376 18.6847 22.9238 18.6235 23.3675 18.4172C23.6569 18.2835 23.9262 18.0885 24.1512 17.8542C24.373 17.6236 24.5505 17.3567 24.658 17.0774C24.8055 16.6968 24.8236 16.2837 24.6461 15.9019L24.1843 14.907L25.2798 14.8245C26.9802 14.6958 27.9526 13.7509 28.3113 12.616C28.4613 12.1405 28.5107 11.6324 28.4669 11.1375C28.4226 10.6413 28.2838 10.1538 28.0595 9.71889C27.5477 8.72713 26.5596 8.02534 25.1973 8.17907L24.0068 8.31405L24.3943 7.17919C24.673 6.36116 24.483 5.58562 24.0181 4.93695C23.63 4.39514 23.0594 3.93269 22.4039 3.59086C21.7352 3.24215 20.9797 3.01842 20.2366 2.96093C19.1355 2.87532 18.0769 3.15903 17.4251 3.95331L16.5658 5.00007L16.1215 3.71834C15.8134 2.82907 14.9504 2.25601 13.903 1.99042C13.1556 1.80107 12.3207 1.76919 11.5145 1.88856C10.7184 2.00667 9.96034 2.27101 9.35604 2.67534C8.588 3.18903 8.06619 3.94082 8.05869 4.91258L8.04932 6.15493L6.95195 5.58562C5.95894 5.07006 4.94531 5.1488 4.09228 5.57062C3.53922 5.84309 3.04928 6.25742 2.66682 6.74674C2.28687 7.23355 2.01627 7.79161 1.90066 8.35717C1.74006 9.14083 1.88566 9.94324 2.46747 10.5719L3.01803 11.1656L2.39061 11.6762C1.74381 12.2023 1.47884 13.0516 1.53071 13.9534C1.56758 14.5989 1.76443 15.2664 2.09689 15.8675C2.43185 16.4675 2.89617 16.9993 3.46923 17.3767C4.35288 17.9573 5.51899 18.1773 6.88945 17.7192L7.3719 19.159ZM6.64761 13.7134C6.93195 14.0203 6.9132 14.5002 6.60636 14.7845C6.29952 15.0689 5.81958 15.0501 5.53524 14.7433C4.6091 13.7434 4.37225 12.4961 4.61847 11.2925C4.7772 10.5194 5.13903 9.76576 5.64522 9.11771C6.14829 8.47216 6.79946 7.92472 7.53688 7.56039C8.75986 6.95546 10.2147 6.84422 11.6445 7.58601C12.0176 7.77849 12.1638 8.23656 11.972 8.60964C11.7795 8.98273 11.3214 9.12958 10.9484 8.93773C9.99721 8.44341 9.02608 8.51903 8.20867 8.92336C7.67874 9.1852 7.20754 9.58203 6.84133 10.052C6.477 10.5188 6.21766 11.0544 6.10642 11.5962C5.95331 12.3455 6.09142 13.1129 6.64761 13.7134ZM15.3385 8.65151C15.0722 8.97523 14.5935 9.02209 14.2705 8.75588C13.9468 8.48966 13.8999 8.01159 14.1661 7.68788C15.1416 6.49927 16.6314 6.06682 18.1456 6.18493C19.0599 6.25554 19.9904 6.53176 20.8172 6.96296C21.6565 7.40041 22.3933 8.00096 22.9032 8.71276C23.6219 9.71576 23.9093 10.9294 23.4656 12.2305C23.3307 12.6279 22.8988 12.841 22.5014 12.7067C22.1039 12.5723 21.8908 12.1399 22.0252 11.7424C22.2914 10.9612 22.1102 10.2207 21.6652 9.60015C21.2928 9.08021 20.7447 8.63652 20.1154 8.3078C19.4724 7.97284 18.7468 7.75787 18.0325 7.70225C16.977 7.62038 15.9621 7.89223 15.3385 8.65151ZM8.87047 15.4007C8.66612 15.0345 8.7986 14.5721 9.16481 14.3683C9.53102 14.1646 9.99409 14.2965 10.1978 14.6627C11.4158 16.8593 11.6433 18.6091 11.3202 20.0933C10.9977 21.5731 10.1403 22.7342 9.17544 23.8022C8.91547 24.0897 8.62237 24.3965 8.33178 24.7003C7.28003 25.8014 6.25765 26.8694 5.99393 28.1105C5.90707 28.5217 5.50337 28.7835 5.09216 28.6967C4.68159 28.6098 4.41912 28.2061 4.50598 27.7949C4.85907 26.1326 6.0308 24.9084 7.23629 23.6498C7.50251 23.3748 7.76997 23.0961 8.05057 22.7849C8.86297 21.8856 9.58101 20.9251 9.83223 19.7721C10.0828 18.6228 9.8816 17.2243 8.87047 15.4007ZM17.4432 15.4007C17.2395 15.0345 17.3713 14.5721 17.7382 14.3683C18.1044 14.1646 18.5668 14.2965 18.7706 14.6627C19.9892 16.8593 20.2166 18.6091 19.8936 20.0933C19.5711 21.5731 18.7131 22.7342 17.7488 23.8022C17.4901 24.0891 17.1957 24.3965 16.9052 24.6996C15.8534 25.8008 14.831 26.8688 14.5667 28.1105C14.4798 28.5217 14.0761 28.7835 13.6655 28.6967C13.2543 28.6098 12.9919 28.2061 13.0794 27.7949C13.4324 26.132 14.6042 24.9077 15.8103 23.6491C16.0759 23.3742 16.3433 23.0954 16.6239 22.7849C17.4357 21.8856 18.1544 20.9251 18.4056 19.7721C18.6562 18.6228 18.4543 17.2249 17.4432 15.4007ZM13.2693 15.4007C13.0656 15.0345 13.1975 14.5721 13.5637 14.3683C13.9299 14.1646 14.3929 14.2965 14.5967 14.6627C15.8147 16.8593 16.0428 18.6091 15.719 20.0933C15.3972 21.5731 14.5392 22.7342 13.5749 23.8022C13.3156 24.0891 13.0219 24.3959 12.7313 24.699C11.0196 26.49 9.38916 28.193 11.0627 31.1645C11.2677 31.5307 11.1371 31.9944 10.7709 32.2C10.4047 32.405 9.94035 32.2744 9.73537 31.9082C7.51063 27.958 9.52289 25.8557 11.6364 23.6485C11.9026 23.3742 12.1688 23.0954 12.4501 22.7849C13.2618 21.8856 13.9805 20.9251 14.2317 19.7721C14.4817 18.6228 14.2805 17.2249 13.2693 15.4007Z" fill="black"/>
</svg>
