<svg width="34" height="25" viewBox="0 0 34 25" fill="none" xmlns="http://www.w3.org/2000/svg">
<g clip-path="url(#clip0_1682_20393)">
<path fill-rule="evenodd" clip-rule="evenodd" d="M23.0139 4.83641C26.5176 2.18503 31.6235 5.27606 31.6235 8.51274C31.6235 10.6031 30.8224 11.4231 29.5817 12.297C35.8393 15.6442 33.0072 23.0481 27.548 24.297H8.48123C-0.473594 24.297 -3.7858 12.1621 5.74893 9.22212C3.96066 2.09333 17.935 -4.34228 23.0139 4.83641ZM18.7523 14.7703H14.3936H22.5851H18.7523Z" fill="black"/>
<path d="M14.3352 12.4787V18.2969H13.5284L10.571 14.0298H10.517V18.2969H9.6392V12.4787H10.4517L13.4119 16.7514H13.4659V12.4787H14.3352ZM20.6697 15.3878C20.6697 16.009 20.5561 16.5431 20.3288 16.9901C20.1016 17.4351 19.79 17.7779 19.3942 18.0185C19.0002 18.2571 18.5523 18.3764 18.0504 18.3764C17.5466 18.3764 17.0968 18.2571 16.701 18.0185C16.3071 17.7779 15.9964 17.4342 15.7692 16.9872C15.5419 16.5402 15.4283 16.0071 15.4283 15.3878C15.4283 14.7666 15.5419 14.2334 15.7692 13.7884C15.9964 13.3414 16.3071 12.9986 16.701 12.7599C17.0968 12.5194 17.5466 12.3991 18.0504 12.3991C18.5523 12.3991 19.0002 12.5194 19.3942 12.7599C19.79 12.9986 20.1016 13.3414 20.3288 13.7884C20.5561 14.2334 20.6697 14.7666 20.6697 15.3878ZM19.8004 15.3878C19.8004 14.9143 19.7237 14.5156 19.5703 14.1918C19.4188 13.866 19.2105 13.6198 18.9453 13.4531C18.6821 13.2846 18.3838 13.2003 18.0504 13.2003C17.7152 13.2003 17.416 13.2846 17.1527 13.4531C16.8894 13.6198 16.6811 13.866 16.5277 14.1918C16.3762 14.5156 16.3004 14.9143 16.3004 15.3878C16.3004 15.8613 16.3762 16.2609 16.5277 16.5866C16.6811 16.9105 16.8894 17.1567 17.1527 17.3253C17.416 17.492 17.7152 17.5753 18.0504 17.5753C18.3838 17.5753 18.6821 17.492 18.9453 17.3253C19.2105 17.1567 19.4188 16.9105 19.5703 16.5866C19.7237 16.2609 19.8004 15.8613 19.8004 15.3878ZM22.3665 13.9332L23.3295 15.6321L24.3011 13.9332H25.2301L23.8693 16.1151L25.2415 18.2969H24.3125L23.3295 16.6662L22.3494 18.2969H21.4176L22.7756 16.1151L21.4347 13.9332H22.3665Z" fill="white"/>
</g>
<defs>
<clipPath id="clip0_1682_20393">
<rect width="33.1436" height="24" fill="white" transform="translate(0 0.296875)"/>
</clipPath>
</defs>
</svg>
