<svg width="37" height="33" viewBox="0 0 37 33" fill="none" xmlns="http://www.w3.org/2000/svg">
<g clip-path="url(#clip0_1682_19548)">
<path fill-rule="evenodd" clip-rule="evenodd" d="M0 4.56008C-3.553e-09 4.31645 0.0469638 4.07521 0.13821 3.85013C0.229456 3.62504 0.363198 3.42053 0.531799 3.24826C0.700399 3.07598 0.900558 2.93933 1.12085 2.8461C1.34113 2.75286 1.57724 2.70488 1.81567 2.70488C2.05411 2.70488 2.29021 2.75286 2.5105 2.8461C2.73079 2.93933 2.93095 3.07598 3.09955 3.24826C3.26815 3.42053 3.40189 3.62504 3.49314 3.85013C3.58438 4.07521 3.63135 4.31645 3.63135 4.56008V28.5824H35.1843C35.6663 28.5824 36.1285 28.778 36.4693 29.1262C36.8101 29.4744 37.0015 29.9467 37.0015 30.4391C37.0015 30.9316 36.8101 31.4038 36.4693 31.752C36.1285 32.1003 35.6663 32.2959 35.1843 32.2959H0V4.56008ZM30.6828 2.49567L29.7795 1.30194C29.7114 1.22417 29.6638 1.13001 29.6412 1.02829C29.6185 0.926575 29.6216 0.820644 29.65 0.720454C29.8096 0.237423 30.3516 0.295879 30.74 0.311262C31.839 0.391254 34.269 0.569699 34.835 0.591235C34.9282 0.588321 35.0208 0.607551 35.1055 0.647412C35.1901 0.687274 35.2646 0.746676 35.323 0.820943C35.3814 0.895209 35.4221 0.98231 35.4419 1.07539C35.4617 1.16846 35.4601 1.26497 35.4373 1.35732C35.3228 1.94187 34.9585 4.60316 34.7688 5.66459C34.7026 6.03379 34.5942 6.51682 34.1335 6.55066C34.0321 6.55424 33.9314 6.53158 33.8409 6.48478C33.7503 6.43799 33.6728 6.36858 33.6156 6.283L32.7122 5.08926L32.3419 4.60931L27.8193 8.11359V8.19358C27.8193 8.93285 27.5318 9.64184 27.0202 10.1646C26.5086 10.6873 25.8147 10.981 25.0912 10.981C24.3677 10.981 23.6738 10.6873 23.1622 10.1646C22.6506 9.64184 22.3632 8.93285 22.3632 8.19358C22.3632 8.13205 22.3632 8.07052 22.3632 8.00898L19.2046 5.67382C18.7154 6.01959 18.129 6.19232 17.5347 6.16565C16.9405 6.13899 16.3711 5.91439 15.9135 5.52615L12.8422 7.75978C12.9075 7.99412 12.9429 8.2361 12.9476 8.47971C12.9446 9.07551 12.7537 9.65444 12.4031 10.1305C12.0525 10.6066 11.5609 10.9544 11.0014 11.1224C10.442 11.2903 9.84441 11.2693 9.29751 11.0626C8.75062 10.8559 8.28356 10.4745 7.9657 9.975C7.64785 9.47549 7.49616 8.88455 7.53317 8.28994C7.57017 7.69533 7.79389 7.12878 8.1711 6.67442C8.54832 6.22007 9.0589 5.90216 9.62701 5.7679C10.1951 5.63365 10.7905 5.69021 11.3246 5.92918L14.9379 3.30174C15.0017 2.60426 15.3201 1.95688 15.8299 1.48845C16.3396 1.02001 17.0033 0.764859 17.6889 0.773779C18.3744 0.7827 19.0315 1.05504 19.5294 1.53659C20.0273 2.01814 20.3295 2.67359 20.3759 3.37251C20.3759 3.43404 20.3759 3.49557 20.3759 3.55403L23.5405 5.89226C24.0084 5.56002 24.5664 5.38582 25.1361 5.39409C25.7058 5.40237 26.2587 5.59271 26.7172 5.93841L30.8574 2.72334L30.6828 2.49567ZM30.6557 9.68882H34.4165C34.5206 9.68882 34.6205 9.73086 34.6944 9.80578C34.7683 9.8807 34.8102 9.98242 34.811 10.0888V25.0227C34.8102 25.1294 34.7684 25.2314 34.6946 25.3068C34.6208 25.3822 34.5209 25.425 34.4165 25.4258H30.6557C30.6039 25.4258 30.5526 25.4153 30.5047 25.3951C30.4569 25.3748 30.4134 25.3451 30.3768 25.3077C30.3401 25.2703 30.3111 25.2259 30.2913 25.177C30.2714 25.1281 30.2612 25.0757 30.2612 25.0227V10.0888C30.262 9.98242 30.3039 9.8807 30.3778 9.80578C30.4517 9.73086 30.5516 9.68882 30.6557 9.68882ZM23.2123 14.8053H26.9731C27.0249 14.8053 27.0762 14.8157 27.1241 14.8359C27.172 14.8562 27.2154 14.8859 27.2521 14.9233C27.2887 14.9607 27.3177 15.0052 27.3376 15.0541C27.3574 15.103 27.3676 15.1554 27.3676 15.2083V25.0227C27.3668 25.1294 27.325 25.2314 27.2512 25.3068C27.1774 25.3822 27.0775 25.425 26.9731 25.4258H23.2123C23.1605 25.4258 23.1092 25.4153 23.0614 25.3951C23.0135 25.3748 22.97 25.3451 22.9334 25.3077C22.8968 25.2703 22.8677 25.2259 22.8479 25.177C22.8281 25.1281 22.8179 25.0757 22.8179 25.0227V15.2083C22.8179 15.1014 22.8594 14.9989 22.9334 14.9233C23.0074 14.8477 23.1077 14.8053 23.2123 14.8053ZM15.766 9.68882H19.5298C19.6336 9.68882 19.7332 9.73096 19.8066 9.80597C19.88 9.88097 19.9212 9.98271 19.9212 10.0888V25.0227C19.9205 25.1288 19.8791 25.2304 19.8059 25.3058C19.7327 25.3811 19.6336 25.4242 19.5298 25.4258H15.766C15.6616 25.425 15.5617 25.3822 15.4879 25.3068C15.4141 25.2314 15.3723 25.1294 15.3715 25.0227V10.0888C15.3723 9.98242 15.4142 9.8807 15.4881 9.80578C15.562 9.73086 15.6619 9.68882 15.766 9.68882ZM8.32259 15.6298H12.0834C12.1352 15.6298 12.1865 15.6402 12.2344 15.6605C12.2822 15.6807 12.3257 15.7104 12.3623 15.7478C12.399 15.7853 12.428 15.8297 12.4478 15.8786C12.4677 15.9275 12.4779 15.9799 12.4779 16.0328V25.0227C12.4771 25.1294 12.4353 25.2314 12.3615 25.3068C12.2877 25.3822 12.1878 25.425 12.0834 25.4258H8.32259C8.27079 25.4258 8.2195 25.4153 8.17164 25.3951C8.12379 25.3748 8.0803 25.3451 8.04367 25.3077C8.00704 25.2703 7.97799 25.2259 7.95817 25.177C7.93834 25.1281 7.92814 25.0757 7.92814 25.0227V16.0328C7.92814 15.9259 7.9697 15.8234 8.04367 15.7478C8.11765 15.6723 8.21798 15.6298 8.32259 15.6298Z" fill="black"/>
</g>
<defs>
<clipPath id="clip0_1682_19548">
<rect width="37" height="32" fill="white" transform="translate(0 0.296875)"/>
</clipPath>
</defs>
</svg>
