<svg xmlns="http://www.w3.org/2000/svg" width="234" height="179" viewBox="0 0 234 179" fill="none">
  <path d="M69.8152 168.073L69.3207 170.257C68.8518 170.138 57.6143 167.312 45.5037 159.542C29.3825 149.191 19.5842 134.983 17.1858 118.423L19.2739 118.063C24.8485 156.52 69.3656 167.959 69.8152 168.073Z" fill="#43BAB9"/>
  <path d="M18.7045 120.633C18.7045 120.633 6.99526 114.422 11.8465 100.113C11.8465 100.113 22.2372 108.555 18.7045 120.633Z" fill="#43BAB9"/>
  <path d="M22.4544 132.332C22.4544 132.332 6.4911 137.666 0 119.645C0 119.645 8.51435 116.518 22.4544 132.332Z" fill="#43BAB9"/>
  <path d="M21.9104 132.403C21.9104 132.403 36.7324 124.136 29.3448 106.521C29.3448 106.521 21.2525 110.714 21.9104 132.403Z" fill="#43BAB9"/>
  <path d="M30.761 145.743C30.761 145.743 15.3722 152.781 7.16333 135.578C7.16333 135.578 15.3301 131.54 30.761 145.743Z" fill="#43BAB9"/>
  <path d="M30.22 145.867C30.22 145.867 44.1711 136.043 35.0968 119.329C35.0968 119.329 27.4458 124.386 30.22 145.867Z" fill="#43BAB9"/>
  <path d="M44.0101 157.397C44.0101 157.397 29.9632 167.096 19.0842 151.661C19.0842 151.661 26.4814 146.201 44.0101 157.397Z" fill="#43BAB9"/>
  <path d="M43.4904 157.616C43.4904 157.616 55.6568 145.42 44.0083 130.616C44.0083 130.616 37.2806 136.978 43.4904 157.616Z" fill="#43BAB9"/>
  <path d="M57.6283 164.708C57.6283 164.708 46.4514 177.925 32.1052 166.045C32.1052 166.045 37.9226 158.753 57.6283 164.708Z" fill="#43BAB9"/>
  <path d="M57.1939 165.062C57.1939 165.062 65.9675 149.967 51.0407 138.916C51.0407 138.916 46.1032 146.889 57.1939 165.062Z" fill="#43BAB9"/>
  <path d="M152.996 168.123C183.895 176.556 209.824 168.375 201.969 151.793C194.113 135.217 199.536 133.457 206.494 128.723C213.454 123.991 229.212 110.632 215.352 94.3632C201.482 78.0923 212.852 74.1651 217.9 65.2701C232.635 39.3202 178.936 25.6064 192.365 50.8729C202.448 69.8345 201.148 83.8863 186.96 92.5454C172.78 101.209 169.798 106.007 169.808 117.606C169.819 129.208 173.296 154.038 159.38 152.302C145.47 150.561 137.149 163.796 152.996 168.123Z" fill="#43BAB9"/>
  <path opacity="0.2" d="M215.356 61.4992C216.952 58.8132 217.983 45.3166 204.832 45.3428C196.833 45.3614 200.422 56.4755 201.798 64.9575C203.173 73.4366 201.269 86.5416 197.654 91.7962C190.98 101.482 192.084 105.759 199.273 114.731C199.273 114.731 202.902 121.314 195.241 127.778C187.59 134.243 189.45 153.226 180.809 155.844C172.161 158.457 167.032 164.722 172.814 165.626C178.594 166.531 202.551 170.106 197.014 153.931C188.964 130.384 207.316 124.465 212.067 119.574C216.421 115.091 220.472 104.784 209.22 91.0218C200.513 80.3698 210.482 69.7618 215.356 61.4992Z" fill="#F6F5F7"/>
  <path d="M148.497 167.579L148.028 164.716C193.501 157.284 213.172 121.674 213.37 121.305L215.926 122.686C215.725 123.048 195.424 159.913 148.497 167.579Z" fill="#EBF2FF"/>
  <path d="M213.181 123.741C213.181 123.741 219.119 108.384 226.864 113.287C230.156 115.366 228.379 122.819 213.181 123.741Z" fill="#EBF2FF"/>
  <path d="M209.735 128.763C209.735 128.763 224.872 120.015 226.451 128.856C227.117 132.629 220.482 137.569 209.735 128.763Z" fill="#EBF2FF"/>
  <path d="M209.765 130.394C209.765 130.394 219.031 116.258 209.492 114.895C205.427 114.305 200.161 120.507 209.765 130.394Z" fill="#EBF2FF"/>
  <path d="M199.682 140.639C199.682 140.639 209.658 126.849 200.233 125.052C196.22 124.282 190.671 130.258 199.682 140.639Z" fill="#EBF2FF"/>
  <path d="M190.846 148.447C190.846 148.447 200.749 134.642 191.322 132.865C187.303 132.097 181.774 138.099 190.846 148.447Z" fill="#EBF2FF"/>
  <path d="M178.492 156.131C178.492 156.131 190.717 143.937 181.974 140.586C178.243 139.161 171.756 144.252 178.492 156.131Z" fill="#EBF2FF"/>
  <path d="M167.794 161.006C167.794 161.006 179.671 148.515 170.783 145.418C167.014 144.112 160.656 149.355 167.794 161.006Z" fill="#EBF2FF"/>
  <path d="M153.145 165.208C153.145 165.208 167.945 155.884 160.613 150.526C157.485 148.239 149.997 151.802 153.145 165.208Z" fill="#EBF2FF"/>
  <path d="M202.336 138.012C202.336 138.012 217.498 129.259 219.062 138.115C219.728 141.879 213.109 146.807 202.336 138.012Z" fill="#EBF2FF"/>
  <path d="M193.291 146.169C193.291 146.169 208.452 137.435 210.014 146.281C210.689 150.043 204.055 154.978 193.291 146.169Z" fill="#EBF2FF"/>
  <path d="M183.357 152.809C183.357 152.809 199.89 147.3 199.19 156.465C198.908 160.367 191.387 163.893 183.357 152.809Z" fill="#EBF2FF"/>
  <path d="M171.616 159.029C171.616 159.029 188.501 155.102 186.769 164.253C186.03 168.148 178.259 170.96 171.616 159.029Z" fill="#EBF2FF"/>
  <path d="M159.169 163.393C159.169 163.393 176.211 161.703 173.1 170.691C171.754 174.509 163.752 176.291 159.169 163.393Z" fill="#EBF2FF"/>
  <path d="M219.222 171.787C219.222 175.399 172.689 178.327 115.282 178.327C57.8792 178.327 11.3423 175.399 11.3423 171.787C11.3423 168.175 57.8799 165.248 115.282 165.248C172.689 165.249 219.222 168.175 219.222 171.787Z" fill="#D0FFEE"/>
  <path d="M193.903 98.1639C193.903 138.392 161.291 171.002 121.063 171.002C80.8321 171.002 48.2222 138.392 48.2222 98.1639C48.2222 57.9333 80.8321 25.3213 121.063 25.3213C161.291 25.3213 193.903 57.9333 193.903 98.1639Z" fill="#229897"/>
  <path d="M127.561 125.236C129.675 128.68 127.542 133.842 122.787 136.761C118.038 139.678 112.466 139.25 110.352 135.805L86.0329 96.1967C83.9166 92.7501 86.0495 87.5934 90.807 84.6743C95.5555 81.7553 101.127 82.1849 103.242 85.6287L127.561 125.236Z" fill="#F6F5F7"/>
  <path d="M126.674 133.882C123.757 138.63 117.539 140.121 112.79 137.204C108.032 134.287 106.548 128.069 109.465 123.313L142.98 68.692C145.897 63.9386 152.115 62.4498 156.87 65.3668C161.621 68.2837 163.112 74.4997 160.195 79.253L126.674 133.882Z" fill="#F6F5F7"/>
  <path d="M67.6038 88.0668C68.6141 87.5999 71.9324 87.3413 73.6639 89.9617C75.9996 93.469 76.8043 102.012 82.0128 104.585C87.2378 107.152 90.4926 104.961 92.8634 103.769C95.2315 102.588 95.6239 100.994 97.0913 100.458C98.5429 99.9235 99.1097 101.685 95.7632 104.5C94.1481 105.844 87.0454 113.448 80.2695 111.549C71.3766 109.043 61.6279 90.7948 67.6038 88.0668Z" fill="#E28C71"/>
  <path d="M75.339 143.202C73.8805 152.109 72.7041 171 76.6134 170.851C80.5337 170.7 82.6287 169.26 80.3303 168.709C78.0181 168.156 77.9367 167.895 77.9595 167.188C78.1388 162.731 81.5812 154.249 82.8804 147.758C84.3926 140.225 76.6272 135.416 75.339 143.202Z" fill="#F27851"/>
  <path d="M74.8328 169.061C74.8328 169.061 78.34 170.331 80.3302 168.709C80.3302 168.709 84.2063 169.034 81.8541 170.214C79.5158 171.4 74.9121 172.545 74.8328 169.061Z" fill="#6EBBCC"/>
  <path d="M60.9906 106.579C60.9906 106.579 81.1535 120.736 84.0566 127.974C86.6605 134.487 80.6149 160.717 80.6149 160.717C80.6149 160.717 76.3657 162.411 72.464 160.019L72.9749 139.62L55.9573 124.056L60.9906 106.579Z" fill="#43BAB9"/>
  <path d="M47.9843 144.31C40.5361 150.459 26.2857 164.849 29.5502 167.483C32.812 170.109 35.5214 170.428 34.0464 168.377C32.581 166.301 32.6906 166.018 33.2133 165.477C36.4985 162.016 45.228 157.597 50.8351 153.29C57.362 148.295 54.492 138.943 47.9843 144.31Z" fill="#F27851"/>
  <path d="M29.3682 164.79C29.3682 164.79 31.3053 168.276 34.0464 168.377C34.0464 168.377 36.9351 171.354 34.2195 170.654C31.5032 169.954 26.9974 167.649 29.3682 164.79Z" fill="#6EBBCC"/>
  <path d="M58.004 106.479C58.004 106.479 68.4671 130.313 65.7067 138.181C63.2311 145.265 39.9085 162.136 39.9085 162.136C39.9085 162.136 35.2883 160.507 33.825 155.833L48.5932 139.76C48.5932 139.76 42.6896 121.182 45.5879 114.293C45.6907 114.062 45.1845 115.934 45.1845 115.934L58.004 106.479Z" fill="#229897"/>
  <path d="M70.5884 117.027C74.4529 111.928 76.6368 104.026 76.7885 97.8902C77.0009 89.3828 69.4823 87.1871 64.7062 86.7361C59.9274 86.2762 52.1171 85.3501 52.4371 95.9532C52.6495 103.352 49.9635 107.217 46.2115 113.473C46.1108 113.638 46.0087 113.774 45.9081 113.93C45.8915 113.927 45.8846 113.909 45.8846 113.909C45.8894 113.92 45.8915 113.927 45.9081 113.93C40.6175 120.427 66.1992 122.809 70.5884 117.027Z" fill="#FCDCDA"/>
  <path d="M46.2106 113.472C46.1099 113.638 46.0079 113.773 45.9072 113.93C45.8906 113.927 45.8837 113.908 45.8837 113.908C45.8886 113.92 45.8906 113.927 45.9072 113.93C41.8117 118.953 56.1834 121.506 64.9336 119.746C66.2914 117.714 59.7162 117.173 57.2819 115.198C51.6701 110.649 71.6819 110.261 68.2347 108.588C64.513 106.796 58.9735 107.51 61.4119 102.062C63.8413 96.6038 61.7505 90.0844 59.4424 87.877C57.0364 85.5696 53.0093 88.2742 52.5707 93.2951C52.461 94.0957 52.3955 94.9639 52.4355 95.9528C52.6486 103.353 49.9627 107.217 46.2106 113.472Z" fill="#EFBEBD"/>
  <path d="M65.3848 80.499C65.3848 80.499 66.4392 84.5331 63.4623 86.0219C60.4101 87.5383 69.7741 94.9983 69.9209 92.7861C70.1127 89.9326 68.9852 88.01 70.9519 85.0579L65.3848 80.499Z" fill="#E67052"/>
  <path d="M72.5874 74.5773C74.5541 77.2584 75.2754 87.5864 72.377 89.2966C71.1075 90.0289 66.8307 88.1346 64.8054 83.2744C63.9627 81.2843 63.151 77.6812 65.5708 74.6663C66.6679 73.294 70.3014 71.45 72.5874 74.5773Z" fill="#EE9D7F"/>
  <path d="M64.0731 74.5233C61.5182 77.7341 62.636 80.8351 62.8174 81.4047C63.4828 83.4859 65.1744 85.425 65.6902 84.823C66.3039 84.1045 63.98 83.3528 65.0461 81.2923C66.117 79.227 64.7544 78.4995 65.464 76.6535C66.1543 74.8143 67.5148 75.4446 71.8199 75.5798C73.5839 75.6356 74.0273 75.0357 73.9646 74.3034C71.7806 71.1726 66.7611 71.1444 64.0731 74.5233Z" fill="#062440"/>
  <path d="M74.3149 76.813C75.3644 74.3209 79.1054 74.918 77.9131 73.1561C77.1153 71.9756 77.1056 72.8644 68.1948 71.0467C64.0345 70.1999 63.2153 71.9756 62.4215 74.3202C61.6864 76.4855 61.9154 81.8057 64.7648 84.9398C67.6045 88.0664 64.6758 82.8559 65.7654 80.4996C66.8549 78.1453 67.5741 79.1418 69.1416 79.5314C70.7097 79.9162 72.6226 80.8264 74.3149 76.813Z" fill="#353A66"/>
  <path d="M44.9529 120.531L52.5018 131.353L113.257 88.9369L121.062 75.4375L105.697 78.1165L44.9529 120.531Z" fill="#494C7F"/>
  <path d="M109.898 84.1141L49.1396 126.526L52.5054 131.348L113.264 88.9358L109.898 84.1141Z" fill="#373C66"/>
  <path d="M121.062 75.4375L118.951 79.0944L116.914 76.1657L121.062 75.4375Z" fill="#1F1440"/>
  <path d="M57.6909 87.2265C58.8226 87.3175 60.7948 89.0256 61.0486 92.1991C61.4058 96.4463 58.9998 104.086 62.3533 108.916C65.7205 113.756 69.6801 113.41 72.3543 113.523C75.0451 113.639 76.1698 112.423 77.7166 112.657C79.2709 112.893 78.9068 114.738 74.5596 115.588C72.4805 115.992 62.456 119.237 57.3882 114.22C50.7468 107.649 51.0688 86.7017 57.6909 87.2265Z" fill="#E28C71"/>
</svg>