<svg width="17" height="13" viewBox="0 0 17 13" fill="none" xmlns="http://www.w3.org/2000/svg">
<path fill-rule="evenodd" clip-rule="evenodd" d="M6.14444 12.0353H5.96605C5.96605 10.5802 5.42185 9.30798 4.33434 8.22048C3.24684 7.13298 1.97554 6.58878 0.519531 6.58878V6.41038C1.97554 6.41038 3.24684 5.86618 4.33434 4.77598C5.42185 3.68577 5.96605 2.41447 5.96605 0.963867H6.14444C6.14444 2.41897 6.68864 3.69118 7.77615 4.77868C8.86365 5.86618 10.135 6.41038 11.591 6.41038V6.58878C10.1359 6.58878 8.86365 7.13298 7.77615 8.22048C6.68864 9.30798 6.14444 10.5793 6.14444 12.0353Z" fill="white"/>
<path fill-rule="evenodd" clip-rule="evenodd" d="M14.1211 5.94601H14.0408C14.0408 5.29121 13.7959 4.71872 13.3065 4.22934C12.8171 3.73997 12.245 3.49508 11.5898 3.49508V3.4148C12.245 3.4148 12.8171 3.16991 13.3065 2.67932C13.7959 2.18873 14.0408 1.61664 14.0408 0.963867H14.1211C14.1211 1.61867 14.3659 2.19116 14.8553 2.68053C15.3447 3.16991 15.9168 3.4148 16.572 3.4148V3.49508C15.9172 3.49508 15.3447 3.73997 14.8553 4.22934C14.3659 4.71872 14.1211 5.29081 14.1211 5.94601Z" fill="white"/>
</svg>
