<svg width="45" height="40" viewBox="0 0 45 40" fill="none" xmlns="http://www.w3.org/2000/svg">
<g clip-path="url(#clip0_1682_20875)">
<path d="M29.9377 20.3492L29.7437 20.9449L29.7144 20.9957L29.6887 21.0284C29.4497 21.09 29.2032 21.1181 28.9563 21.1119C29.1833 20.4553 29.2596 19.7567 29.1797 19.0671C29.172 18.9733 29.1885 18.8791 29.2276 18.7934C29.2666 18.7076 29.327 18.6331 29.4031 18.5768C29.8153 18.266 30.1199 17.8357 30.2747 17.3456L30.3955 16.3977C30.3863 16.2684 30.363 16.1405 30.3259 16.0163C30.3259 15.9727 30.2966 15.94 30.2856 15.911H30.1904C30.0482 15.9027 29.9146 15.841 29.8166 15.7384C29.7187 15.6359 29.6638 15.5002 29.6631 15.3589C29.6814 13.572 29.491 12.4533 29.1614 11.6797C28.6047 10.7463 27.7441 10.2742 26.7188 9.76569C26.5393 9.68942 26.3525 9.60588 26.1694 9.51145C22.8259 12.9763 20.0574 8.51993 16.0913 15.2318H15.9558C15.9045 15.348 15.8496 15.4642 15.7983 15.595L15.769 15.6531C15.6947 15.7807 15.5724 15.8739 15.4288 15.912C15.2853 15.9501 15.1324 15.9302 15.0037 15.8565C14.9133 15.8056 14.8621 15.7838 14.8499 15.7911C14.8279 15.7911 14.8022 15.8492 14.7693 15.9255C14.698 16.1027 14.6571 16.2906 14.6484 16.4812C14.6082 17.2657 14.8645 18.2972 15.3809 18.7947C15.4337 18.8445 15.4761 18.9041 15.5057 18.9702C15.5352 19.0363 15.5513 19.1075 15.553 19.1797C15.6116 21.5768 16.6846 22.4921 17.9883 23.6071L18.5376 24.0792C19.845 25.2342 21.2256 25.8299 22.5659 25.8299C23.9062 25.8299 25.199 25.2705 26.4148 24.1083H27.301H27.3962C27.5757 24.1083 27.8027 24.1083 28.0591 24.1083L27.7625 24.388L27.2205 24.8964C25.7556 26.2802 24.1956 26.9485 22.5916 26.9485C20.9875 26.9485 19.325 26.2548 17.8052 24.9146L17.2705 24.4497C15.9851 23.3601 14.8938 22.4194 14.5532 20.3783L12.7881 20.5199C12.4498 20.5694 12.1053 20.4859 11.8282 20.2871C11.5511 20.0883 11.3634 19.79 11.3049 19.4558L10.6201 14.0877C10.6019 13.9177 10.618 13.7458 10.6675 13.582C10.7169 13.4182 10.7987 13.2657 10.9081 13.1336C11.0175 13.0014 11.1523 12.8922 11.3047 12.8122C11.4571 12.7322 11.624 12.683 11.7957 12.6676L12.3706 12.6204C12.3362 12.5461 12.3163 12.466 12.312 12.3843C11.9678 6.80927 14.3921 3.30443 17.6697 1.62283C19.3449 0.800135 21.2053 0.418478 23.0722 0.514519C24.9391 0.61056 26.7497 1.18107 28.3301 2.17126C31.3257 4.0853 33.2812 7.58651 32.4023 12.457C32.3881 12.5247 32.366 12.5905 32.3364 12.6531L33.2117 12.7512C33.3967 12.77 33.5761 12.8254 33.7393 12.914C33.9024 13.0027 34.0461 13.1228 34.1617 13.2673C34.2774 13.4118 34.3628 13.5778 34.4128 13.7555C34.4629 13.9331 34.4766 14.119 34.4531 14.302L33.7756 19.4085C33.7177 19.7763 33.5171 20.107 33.2168 20.3302C32.9165 20.5535 32.5401 20.6515 32.168 20.6035C32.0682 20.9891 31.946 21.3687 31.8018 21.7403C31.6773 22.0558 31.4906 22.3436 31.2524 22.5865C30.52 23.3347 28.1543 23.3347 27.3157 23.3347H25.1184C24.8659 23.5809 24.5647 23.7726 24.2338 23.8976C23.9029 24.0226 23.5495 24.0783 23.1958 24.0611C21.98 24.0611 20.9985 23.4219 20.9985 22.6337C20.9985 21.8456 21.98 21.2064 23.1958 21.2064C23.5375 21.1994 23.8772 21.2597 24.1953 21.3837C24.5134 21.5078 24.8035 21.6932 25.0488 21.9291H27.301C27.9602 21.9291 29.9158 21.9291 30.2527 21.5914C30.3544 21.487 30.4341 21.3635 30.4871 21.2282L30.7361 20.4582L29.9377 20.3674V20.3492ZM13.916 10.3686C15.1611 4.6083 21.9324 1.01629 28.3594 4.67368C28.9377 5.00279 29.4645 5.41391 29.9231 5.89402C29.3024 4.86455 28.447 3.99379 27.4255 3.35164C26.0988 2.51447 24.5759 2.0327 23.0054 1.95334C21.4341 1.85675 19.865 2.17375 18.457 2.87223C16.0474 4.09257 14.1797 6.54777 13.916 10.3686ZM16.3989 27.0139L19.7754 35.7996L21.4746 31.009L20.6433 30.1083C20.0171 29.2003 20.2332 28.1725 21.3757 27.9872C21.7932 27.9476 22.2131 27.9391 22.6318 27.9618C23.0927 27.9322 23.5554 27.9505 24.0125 28.0163C25.0891 28.2487 25.2026 29.2838 24.6643 30.1083L23.8477 31.009L25.5432 35.8032L28.6011 27.0139C30.7983 28.9824 38.5657 29.3783 40.9937 30.7185C44.3555 32.5853 44.2639 36.1664 45 39.5078H0C0.732422 36.1991 0.655518 32.5562 4.00635 30.7185C6.99097 29.0659 13.9563 29.193 16.3989 27.0139Z" fill="black"/>
</g>
<defs>
<clipPath id="clip0_1682_20875">
<rect width="45" height="39" fill="white" transform="translate(0 0.5)"/>
</clipPath>
</defs>
</svg>
