<svg width="24" height="25" viewBox="0 0 24 25" fill="none" xmlns="http://www.w3.org/2000/svg">
<path d="M12.0006 14.5H12.0096M7.00055 22.5H17.0006M3.51855 10.806C3.13055 9.732 2.93655 9.195 3.01855 8.851C3.10955 8.474 3.37755 8.181 3.71955 8.083C4.03255 7.993 4.51955 8.21 5.49255 8.643C6.35255 9.025 6.78255 9.216 7.18755 9.206C7.63355 9.194 8.06155 9.016 8.40255 8.699C8.71255 8.412 8.91955 7.955 9.33455 7.041L10.2495 5.025C11.0135 3.342 11.3956 2.5 12.0006 2.5C12.6056 2.5 12.9876 3.342 13.7516 5.025L14.6666 7.041C15.0816 7.955 15.2895 8.412 15.5985 8.699C15.9395 9.015 16.3686 9.194 16.8135 9.206C17.2176 9.216 17.6485 9.025 18.5085 8.642C19.4825 8.21 19.9685 7.993 20.2815 8.083C20.6235 8.181 20.8916 8.474 20.9816 8.851C21.0646 9.195 20.8706 9.731 20.4816 10.806L18.8145 15.422C18.1005 17.397 17.7445 18.384 16.9976 18.942C16.2506 19.5 15.2856 19.5 13.3566 19.5H10.6445C8.71455 19.5 7.75055 19.5 7.00455 18.942C6.25755 18.384 5.90055 17.397 5.18655 15.422L3.51855 10.806Z" stroke="url(#paint0_linear_1822_3301)" stroke-width="1.5" stroke-linecap="round" stroke-linejoin="round"/>
<defs>
<linearGradient id="paint0_linear_1822_3301" x1="8.00049" y1="9.5" x2="13.5005" y2="20" gradientUnits="userSpaceOnUse">
<stop stop-color="#F3D227"/>
<stop offset="0.532222" stop-color="#FAF2C7"/>
<stop offset="1" stop-color="#FFDD31"/>
</linearGradient>
</defs>
</svg>
