<svg width="19" height="19" viewBox="0 0 19 19" fill="none" xmlns="http://www.w3.org/2000/svg">
<path fill-rule="evenodd" clip-rule="evenodd" d="M3.16536 8.70703C3.16536 5.64645 5.64645 3.16536 8.70703 3.16536C11.7676 3.16536 14.2487 5.64645 14.2487 8.70703C14.2487 10.2011 13.6574 11.5572 12.6961 12.5538C12.6698 12.5742 12.6446 12.5964 12.6205 12.6205C12.5964 12.6446 12.5742 12.6698 12.5538 12.6961C11.5572 13.6574 10.2011 14.2487 8.70703 14.2487C5.64645 14.2487 3.16536 11.7676 3.16536 8.70703ZM13.1544 14.274C11.9355 15.249 10.3893 15.832 8.70703 15.832C4.772 15.832 1.58203 12.6421 1.58203 8.70703C1.58203 4.772 4.772 1.58203 8.70703 1.58203C12.6421 1.58203 15.832 4.772 15.832 8.70703C15.832 10.3893 15.249 11.9355 14.274 13.1544L17.1838 16.0642C17.493 16.3734 17.493 16.8746 17.1838 17.1838C16.8746 17.493 16.3734 17.493 16.0642 17.1838L13.1544 14.274Z" fill="#1C1C1C" fill-opacity="0.2"/>
</svg>
