<svg width="33" height="32" viewBox="0 0 33 32" fill="none" xmlns="http://www.w3.org/2000/svg">
<g clip-path="url(#clip0_1043_11814)">
<path d="M16.8203 8.5C17.3726 8.5 17.8203 8.05228 17.8203 7.5C17.8203 6.94772 17.3726 6.5 16.8203 6.5C16.268 6.5 15.8203 6.94772 15.8203 7.5C15.8203 8.05228 16.268 8.5 16.8203 8.5Z" fill="black"/>
<path d="M16.8203 17C17.3726 17 17.8203 16.5523 17.8203 16C17.8203 15.4477 17.3726 15 16.8203 15C16.268 15 15.8203 15.4477 15.8203 16C15.8203 16.5523 16.268 17 16.8203 17Z" fill="black"/>
<path d="M16.8203 25.5C17.3726 25.5 17.8203 25.0523 17.8203 24.5C17.8203 23.9477 17.3726 23.5 16.8203 23.5C16.268 23.5 15.8203 23.9477 15.8203 24.5C15.8203 25.0523 16.268 25.5 16.8203 25.5Z" fill="black"/>
</g>
<defs>
<clipPath id="clip0_1043_11814">
<rect width="32" height="32" fill="white" transform="translate(0.820312)"/>
</clipPath>
</defs>
</svg>
